<?xml version="1.0" standalone="no"?>
<!DOCTYPE svg PUBLIC "-//W3C//DTD SVG 20010904//EN"
 "http://www.w3.org/TR/2001/REC-SVG-20010904/DTD/svg10.dtd">
<svg version="1.0" xmlns="http://www.w3.org/2000/svg"
 width="16.000000pt" height="16.000000pt" viewBox="0 0 16.000000 16.000000"
 preserveAspectRatio="xMidYMid meet">
<metadata>
Created by potrace 1.11, written by Peter Selinger 2001-2013
</metadata>
<g transform="translate(0.000000,16.000000) scale(0.004290,-0.004290)"
fill="#000000" stroke="none">
<path d="M0 1865 l0 -1865 1865 0 1865 0 0 1865 0 1865 -1865 0 -1865 0 0
-1865z m1480 1365 c282 -70 440 -246 440 -490 -1 -270 -190 -500 -472 -575
-82 -22 -257 -17 -329 9 -44 16 -47 20 -63 73 -8 31 -14 58 -13 60 2 1 24 -4
50 -12 216 -65 419 15 512 200 29 57 30 66 30 190 0 127 -1 132 -32 196 -86
174 -250 246 -550 240 l-63 -1 0 -801 0 -800 43 -19 c23 -10 79 -26 125 -36
l82 -17 0 -39 0 -38 -370 0 -370 0 0 39 c0 39 0 39 53 52 65 15 117 36 140 57
16 14 17 65 17 799 l0 783 -22 -4 c-49 -11 -180 -27 -184 -23 -2 2 -8 25 -13
50 l-8 47 36 10 c55 16 315 59 421 69 160 16 441 6 540 -19z m1580 -525 c30
-15 67 -36 82 -46 16 -12 29 -15 33 -9 3 5 38 29 76 52 75 44 72 44 100 -5 8
-14 4 -25 -16 -49 -39 -47 -65 -103 -80 -177 -16 -76 -39 -332 -55 -601 -21
-366 -45 -534 -95 -665 -102 -273 -319 -490 -550 -551 -142 -38 -384 14 -488
106 -41 36 -45 56 -21 103 22 42 123 147 142 147 8 0 42 -25 75 -57 34 -31 91
-70 127 -87 56 -26 76 -30 150 -30 75 -1 91 3 135 27 28 15 63 43 78 63 97
121 155 358 176 719 5 83 8 151 7 152 -1 2 -38 -52 -82 -119 -53 -83 -110
-154 -174 -218 -135 -136 -214 -170 -319 -135 -217 72 -317 440 -209 775 101
313 359 549 693 634 11 3 52 4 90 2 53 -2 84 -10 125 -31z"/>
<path d="M2723 2560 c-128 -30 -258 -192 -328 -410 -21 -66 -29 -111 -32 -200
-6 -140 6 -215 49 -299 26 -51 42 -69 78 -89 35 -19 53 -24 75 -18 66 17 228
221 339 427 43 80 47 95 61 210 13 110 19 150 41 249 4 21 -3 31 -50 65 -93
67 -154 84 -233 65z"/>
</g>
</svg>
