<?xml version="1.0" standalone="no"?>
<!DOCTYPE svg PUBLIC "-//W3C//DTD SVG 20010904//EN"
 "http://www.w3.org/TR/2001/REC-SVG-20010904/DTD/svg10.dtd">
<svg version="1.0" xmlns="http://www.w3.org/2000/svg"
 width="956.000000pt" height="667.000000pt" viewBox="0 0 956.000000 667.000000"
 preserveAspectRatio="xMidYMid meet">
<metadata>
Created by potrace 1.14, written by Peter Selinger 2001-2017
</metadata>
<g transform="translate(0.000000,667.000000) scale(0.100000,-0.100000)"
fill="#000000" stroke="none">
<path d="M352 6511 c-3 -7 0 -73 6 -145 7 -72 12 -244 12 -382 l0 -252 -70 -7
c-38 -4 -91 -12 -117 -19 l-48 -12 -7 -170 c-4 -93 -9 -367 -12 -609 -5 -530
-21 -1039 -38 -1230 -10 -103 -12 -366 -10 -990 2 -467 4 -881 5 -920 l2 -70
148 -5 148 -5 -30 -29 c-32 -31 -40 -56 -19 -56 7 0 31 19 55 42 23 23 45 39
49 35 7 -7 -12 -543 -26 -717 -11 -132 -12 -585 -1 -708 5 -65 11 -87 25 -97
39 -29 186 -33 878 -23 401 6 504 5 535 -6 21 -7 62 -16 91 -20 48 -6 54 -5
59 12 5 19 21 20 706 17 418 -2 730 -8 772 -14 41 -6 276 -10 569 -11 285 0
559 -5 636 -11 174 -15 240 -7 279 31 37 37 40 58 32 225 -4 77 -4 144 -1 148
4 4 37 -3 75 -17 37 -14 71 -23 76 -20 11 6 12 164 1 181 -12 20 -55 12 -87
-16 -16 -15 -41 -35 -54 -46 l-24 -20 7 275 c6 246 21 509 31 518 2 2 35 -6
75 -18 39 -12 83 -20 98 -18 27 3 27 4 23 68 -2 36 -7 70 -13 77 -11 14 -44 5
-117 -31 -29 -15 -56 -25 -59 -22 -8 9 -3 138 9 242 l11 90 -37 41 c-20 23
-54 48 -75 57 -43 17 -204 48 -370 71 -63 8 -171 24 -240 35 -299 46 -392 50
-1140 54 -300 2 -639 9 -755 15 -115 6 -329 15 -475 21 -146 6 -312 15 -370
21 -131 14 -893 6 -965 -10 -38 -8 -58 -20 -84 -48 -42 -48 -82 -133 -89 -190
-4 -36 -8 -43 -21 -37 -24 10 -71 17 -71 10 0 -3 16 -16 35 -29 l35 -24 -52
-6 c-66 -8 -206 -9 -235 -1 l-21 6 3 921 c2 507 6 958 9 1002 14 206 27 679
36 1305 10 771 1 700 92 719 58 13 98 14 116 2 8 -5 14 -34 16 -82 l2 -74 286
-5 c158 -3 289 -8 292 -11 5 -5 36 -279 36 -322 0 -15 -6 -16 -42 -11 l-43 7
49 -52 c28 -30 45 -56 40 -61 -5 -5 -141 -11 -303 -13 -330 -4 -315 0 -326
-81 -16 -113 10 -1038 33 -1186 l7 -45 505 1 c421 0 552 4 788 22 322 25 752
31 752 10 0 -6 -18 -42 -40 -79 -22 -37 -40 -72 -40 -78 0 -6 37 -46 81 -89
l81 -78 3 -269 c1 -172 7 -288 15 -320 6 -27 16 -113 21 -190 11 -172 18 -221
33 -234 6 -5 197 -12 451 -15 242 -4 553 -9 691 -12 l252 -6 6 -29 c7 -36 23
-37 32 -3 l7 27 229 -7 c127 -4 236 -10 245 -13 10 -4 13 -14 9 -29 -8 -32 8
-31 75 6 l54 29 10 -162 c11 -176 18 -196 79 -232 24 -15 47 -17 180 -11 436
19 859 28 1376 30 400 2 582 6 596 14 24 13 34 50 34 131 0 93 9 129 35 135
12 3 60 34 106 68 46 35 130 93 186 131 55 37 128 92 162 122 l61 54 29 -17
c28 -16 31 -16 51 3 12 11 35 45 50 75 l28 55 7 -50 c14 -112 36 -122 235
-109 156 9 116 9 900 -3 448 -7 611 -13 628 -22 18 -9 31 -10 57 -1 30 10 35
16 40 53 3 23 4 188 2 366 l-5 325 -26 23 c-24 20 -38 23 -114 24 -110 1 -288
21 -300 34 -5 6 -7 29 -5 52 4 36 8 42 31 45 35 4 39 30 11 69 l-22 31 154 -7
c159 -6 194 -1 171 28 -17 20 -378 31 -565 17 -78 -5 -214 -15 -302 -20 -88
-6 -245 -17 -350 -25 -217 -17 -452 -19 -488 -6 -21 8 -26 20 -36 73 -6 35
-10 115 -10 179 l1 116 187 6 c358 13 657 27 791 37 210 16 780 18 780 3 0 -7
-7 -13 -15 -13 -19 0 -19 -18 -1 -39 7 -9 16 -35 20 -59 7 -45 7 -45 -47 -56
-25 -6 -27 -5 -21 19 7 29 -1 31 -43 10 -38 -19 -63 -10 -63 21 0 32 -28 31
-40 -1 -7 -19 -17 -25 -41 -25 -35 0 -36 23 -1 28 27 4 29 32 3 32 -75 0 -93
-79 -21 -95 25 -5 28 -9 20 -25 -5 -10 -21 -21 -36 -24 -21 -6 -24 -9 -14 -21
17 -20 33 -19 63 5 14 11 40 20 60 20 45 0 67 9 67 26 0 18 14 18 29 0 6 -7
25 -16 41 -20 36 -7 47 -28 32 -62 -9 -18 -19 -24 -44 -24 -30 -1 -32 -2 -15
-15 11 -7 37 -17 59 -20 28 -5 42 -13 45 -26 3 -10 12 -19 19 -19 19 0 20 260
2 293 -9 16 -12 130 -13 427 l0 405 -125 8 c-71 5 -284 3 -495 -3 -203 -6
-543 -15 -755 -20 -212 -5 -405 -14 -429 -19 -73 -15 -74 -17 -68 -253 4 -126
2 -210 -4 -213 -5 -4 -36 6 -69 21 -76 34 -90 26 -90 -53 0 -79 10 -92 62 -86
24 3 55 12 70 19 15 8 31 14 36 14 11 0 22 -123 27 -300 6 -183 22 -278 50
-296 37 -24 225 -28 500 -10 683 46 845 53 845 38 0 -5 -11 -19 -24 -31 -28
-26 -24 -48 9 -61 14 -5 25 -20 28 -39 8 -40 1 -58 -26 -65 -12 -3 -213 -3
-447 1 -395 5 -438 4 -604 -16 -245 -30 -263 -35 -282 -80 -9 -20 -20 -60 -26
-88 -6 -31 -16 -53 -24 -53 -7 0 -26 19 -41 43 -23 33 -35 42 -58 42 -25 0
-31 -5 -35 -30 -4 -19 -11 -29 -20 -28 -69 10 -258 77 -307 109 -25 16 -30 37
-42 187 -5 70 -13 113 -22 122 -19 18 -442 22 -829 7 -157 -5 -288 -8 -292 -6
-14 9 -1147 3 -1227 -6 -120 -14 -124 -19 -119 -148 l4 -104 -47 6 c-62 8 -74
-10 -20 -31 22 -9 39 -19 37 -22 -2 -3 -128 -8 -280 -9 -299 -4 -306 -3 -306
48 0 33 21 41 90 33 42 -5 50 -3 73 22 l25 28 12 -43 c11 -41 12 -42 43 -35
18 4 53 7 80 6 26 0 47 4 47 9 0 6 -5 10 -12 10 -6 0 -3 9 7 20 15 16 15 22 5
35 -15 18 -51 20 -67 4 -15 -15 -34 -3 -26 16 7 20 -11 19 -28 -1 -10 -13 -10
-19 0 -36 8 -14 9 -24 3 -30 -16 -16 -29 -1 -36 42 -7 42 -24 52 -46 25 -17
-20 -48 -19 -52 3 -3 14 -15 17 -68 18 -69 2 -90 -7 -90 -37 0 -20 -8 -23 -33
-13 -9 3 -13 13 -10 25 7 25 -9 24 -33 -2 -18 -20 -18 -21 6 -40 14 -10 19
-19 13 -19 -7 0 -13 -5 -13 -11 0 -8 12 -10 34 -6 31 5 34 3 40 -25 3 -16 4
-33 1 -38 -2 -4 -170 -10 -373 -14 -203 -4 -375 -8 -383 -8 -8 -1 -37 0 -65 0
l-51 2 -16 51 c-26 79 -23 93 38 159 51 56 68 90 45 90 -6 0 -21 25 -35 56
-13 30 -33 67 -45 81 -11 14 -20 30 -20 34 0 5 24 9 54 9 31 0 58 5 64 13 6 6
14 73 17 147 4 74 10 151 14 170 l7 35 49 -46 c81 -73 115 -99 133 -99 10 0
64 27 122 60 58 32 120 62 140 65 66 10 525 35 650 35 155 0 172 -4 164 -36
-10 -40 17 -28 80 35 l58 59 -23 15 c-13 8 -48 18 -76 21 -44 6 -53 4 -53 -9
0 -10 14 -17 40 -21 42 -7 51 -18 24 -28 -9 -3 -97 -6 -197 -6 -100 -1 -240
-5 -312 -10 -71 -5 -195 -12 -275 -16 l-146 -7 -77 72 c-42 39 -82 71 -87 71
-17 0 -89 -39 -152 -81 -31 -22 -59 -39 -62 -39 -4 0 -6 100 -6 223 0 133 -6
272 -15 347 -9 69 -20 168 -26 220 -5 52 -11 100 -14 106 -4 14 -1376 18
-1785 5 -151 -5 -277 -7 -280 -4 -2 2 2 14 10 26 50 80 43 97 -20 46 -22 -18
-42 -30 -44 -28 -7 7 -42 351 -38 372 3 15 19 17 160 17 86 0 195 4 242 10
151 17 688 40 938 40 133 0 242 4 242 8 0 4 -5 13 -12 20 -7 7 -12 48 -12 104
l-1 93 380 7 c428 7 1311 3 1338 -8 25 -9 21 -16 -28 -49 -25 -16 -45 -36 -45
-42 0 -19 9 -16 70 22 33 20 59 30 64 25 5 -5 9 -134 9 -288 -1 -154 2 -285 6
-291 10 -16 562 -23 851 -11 544 22 791 30 1067 32 l292 3 7 62 c11 110 1 293
-20 336 -17 35 -19 108 -2 124 3 3 27 -9 54 -26 27 -17 56 -31 66 -31 21 0 70
25 111 56 29 22 34 23 155 14 69 -5 214 -10 322 -10 117 0 199 -4 203 -10 3
-5 1 -19 -5 -30 -21 -40 2 -42 40 -5 22 21 43 34 50 30 7 -5 10 -56 8 -168 -2
-147 0 -172 25 -272 29 -119 45 -211 54 -318 4 -47 10 -70 21 -74 8 -4 58 1
111 11 111 19 394 22 673 7 95 -6 352 -15 571 -22 353 -11 400 -10 413 3 13
13 15 78 14 489 0 261 -5 517 -10 569 -5 52 -10 136 -10 187 0 90 -11 138 -34
145 -6 2 -317 0 -691 -5 -677 -9 -829 -5 -1012 25 -100 16 -101 14 -95 -144 5
-136 -11 -335 -29 -353 -6 -6 -25 -1 -55 14 -31 17 -42 27 -34 35 13 13 13 53
-1 61 -6 4 -7 19 -4 36 8 35 -12 40 -40 9 -17 -19 -17 -21 0 -40 13 -15 15
-24 8 -31 -16 -16 -30 -3 -38 34 -10 45 -24 60 -42 46 -10 -9 -20 -9 -38 -1
-33 15 -58 -8 -49 -46 10 -40 11 -41 53 -35 31 4 46 1 67 -16 15 -11 35 -21
46 -21 10 0 22 -10 28 -24 5 -13 14 -27 19 -31 6 -3 11 -11 11 -16 0 -11 -299
-12 -530 -2 l-145 6 -52 49 c-57 55 -61 55 -136 12 -77 -44 -77 -45 -78 134
-1 237 -10 341 -31 356 -12 9 -94 15 -280 20 -1024 26 -1809 35 -1880 21 -36
-7 -38 -9 -38 -46 0 -21 9 -85 20 -141 22 -112 27 -302 10 -313 -6 -4 -26 5
-45 19 -52 40 -74 33 -33 -11 12 -13 19 -25 17 -28 -8 -7 -1707 -7 -1719 0 -6
3 -8 11 -4 16 3 5 7 62 9 127 2 64 8 202 14 306 6 104 9 191 6 194 -20 20
-226 25 -1105 26 -556 1 -981 5 -989 10 -24 15 -143 13 -149 -3z m296 -32
c149 -7 450 -9 877 -4 603 6 979 -2 1029 -21 15 -6 16 -17 11 -93 -16 -246
-29 -373 -39 -376 -6 -2 -79 -6 -161 -9 l-151 -6 -12 48 c-23 92 -35 162 -29
169 4 3 15 -1 24 -9 25 -22 57 -30 87 -22 33 8 24 24 -15 24 -36 0 -37 8 -1
36 22 18 25 26 16 40 -19 31 -40 39 -67 25 -19 -10 -29 -10 -46 -1 -27 14 -58
5 -93 -28 l-27 -25 -10 25 c-13 34 -49 43 -81 19 -25 -18 -26 -18 -49 0 -29
24 -42 24 -74 -1 l-25 -20 -16 24 c-8 13 -30 27 -48 31 -28 7 -36 3 -61 -25
-15 -17 -31 -30 -33 -27 -3 3 -8 27 -12 54 -6 38 -11 49 -28 51 -15 2 -26 -7
-39 -33 -11 -19 -22 -35 -26 -35 -3 0 -18 14 -32 30 -15 17 -31 30 -37 30 -27
0 -41 -101 -20 -154 15 -42 30 -30 30 24 0 54 7 61 35 30 22 -24 38 -25 55 -5
18 21 29 19 36 -10 8 -32 30 -50 47 -38 6 5 49 9 95 7 81 -2 112 8 112 37 0
18 21 8 31 -15 14 -31 53 -48 93 -41 17 3 55 2 85 -3 l54 -7 18 -65 c10 -36
18 -77 19 -92 0 -24 -4 -28 -28 -28 -15 0 -44 9 -65 20 -52 28 -58 24 -17 -10
l35 -29 -30 -2 c-82 -4 -237 3 -390 19 -134 13 -262 17 -610 16 -242 -1 -488
-4 -546 -8 l-106 -7 -6 173 c-4 95 -10 211 -13 257 -6 77 -6 84 10 78 9 -4
119 -12 244 -18z m5002 -165 c13 -5 581 -25 777 -28 39 0 74 -3 76 -6 3 -3 8
-66 12 -141 l7 -135 -358 0 c-198 0 -525 -6 -729 -13 -203 -7 -521 -11 -705
-9 l-335 3 -3 35 c-1 19 -12 81 -23 138 -11 56 -19 115 -17 130 3 25 7 27 58
33 62 7 1217 0 1240 -7z m-3900 -65 c0 -23 -27 -36 -42 -21 -9 9 -7 17 7 32
20 22 35 18 35 -11z m250 -14 c0 -8 -7 -15 -15 -15 -16 0 -20 12 -8 23 11 12
23 8 23 -8z m5765 -2 c82 -13 238 -17 847 -22 410 -3 748 -8 751 -11 8 -9 26
-325 19 -330 -4 -3 -351 -3 -772 0 -421 3 -814 2 -874 -3 -71 -6 -111 -5 -115
1 -3 6 -5 94 -3 196 3 216 -15 195 147 169z m-5635 -2 c0 -12 -20 -25 -27 -18
-7 7 6 27 18 27 5 0 9 -4 9 -9z m-450 -277 c385 -28 382 -29 -450 -54 -195 -5
-456 -15 -579 -20 -240 -11 -241 -11 -241 37 0 12 6 25 13 30 19 13 525 29
797 26 135 -2 342 -11 460 -19z m4839 -98 c0 -61 -4 -130 -7 -153 l-7 -42
-1051 -4 c-578 -3 -1057 -1 -1064 3 -9 6 -11 23 -5 61 4 30 6 89 5 131 -1 66
1 78 18 87 12 6 171 10 443 10 233 0 514 4 624 9 110 5 390 9 623 9 l422 -1
-1 -110z m-3991 65 l4 -24 -209 8 c-114 4 -237 11 -273 15 l-65 7 70 3 c39 1
120 6 180 10 61 4 151 6 200 6 87 -1 90 -2 93 -25z m-30 -57 c19 -5 22 -13 22
-55 0 -26 4 -50 9 -53 4 -3 7 -38 5 -78 l-3 -73 -158 -2 c-224 -3 -670 -21
-927 -39 -120 -8 -221 -12 -224 -9 -3 3 7 27 21 54 15 27 27 62 27 78 0 44
-20 93 -37 93 -10 0 -13 -5 -8 -17 19 -46 17 -100 -5 -151 -19 -43 -27 -52
-54 -57 -17 -3 -184 -1 -371 4 -187 6 -351 11 -364 11 l-23 0 4 125 c2 68 7
127 11 131 7 8 106 13 642 39 294 14 1385 13 1433 -1z m6722 -55 c83 -6 150
-16 157 -22 8 -9 12 -132 16 -432 2 -231 2 -426 0 -432 -3 -9 -29 -13 -86 -12
-76 1 -79 2 -47 13 72 23 76 40 28 142 -26 56 -31 78 -30 133 1 82 -3 97 -31
105 -20 6 -21 7 -4 17 9 5 24 23 32 39 17 33 13 60 -16 125 -12 26 -19 64 -19
111 0 82 -12 100 -53 85 -14 -6 -34 -22 -43 -36 l-17 -26 -23 28 c-22 27 -24
27 -51 13 -38 -21 -40 -66 -3 -64 14 1 29 -5 33 -12 5 -9 25 -14 52 -14 24 0
47 -6 52 -12 23 -37 63 -153 58 -169 -8 -24 -40 -41 -90 -49 -34 -4 -40 -9
-37 -26 2 -16 -6 -26 -33 -38 -28 -14 -35 -23 -35 -46 0 -38 17 -47 43 -21
l21 21 32 -35 c17 -19 46 -38 63 -41 17 -4 31 -12 31 -18 0 -6 14 -40 30 -75
44 -92 40 -95 -81 -88 -73 4 -99 2 -96 -6 2 -7 21 -17 43 -23 21 -7 55 -17 74
-22 42 -13 -466 -6 -732 9 -243 13 -598 11 -688 -6 -89 -15 -100 -10 -100 49
0 42 -26 179 -57 301 -14 58 -17 107 -15 295 2 124 6 228 10 232 4 4 39 11 77
16 94 12 1353 4 1535 -9z m-2798 -185 c70 -6 77 -8 82 -30 4 -14 16 -34 28
-46 20 -20 21 -27 15 -156 -4 -74 -10 -139 -15 -144 -4 -4 -184 -13 -398 -18
-214 -5 -420 -12 -459 -15 -241 -19 -1109 -35 -1123 -21 -2 3 5 17 17 32 15
19 21 41 21 79 l0 53 39 -5 c23 -3 41 -1 45 6 5 7 -1 11 -13 11 -24 0 -26 12
-9 39 13 22 5 49 -18 58 -12 4 -24 -3 -39 -21 l-21 -27 -19 21 c-23 26 -57 26
-81 -1 -24 -27 -8 -54 33 -55 46 -1 53 -10 53 -73 0 -79 -17 -94 -71 -64 -46
25 -52 13 -9 -19 17 -12 30 -25 30 -30 0 -4 -27 -8 -60 -8 -59 0 -59 0 -65 33
-3 17 -5 115 -3 217 l3 185 320 6 c372 7 1604 2 1717 -7z m-1902 -204 c0 -5
-7 -10 -16 -10 -8 0 -12 5 -9 10 3 6 10 10 16 10 5 0 9 -4 9 -10z m4648 -137
c-5 -25 -25 -27 -38 -4 -10 19 -8 21 15 21 19 0 26 -5 23 -17z m-6027 -237
c10 -26 48 -376 42 -393 -7 -19 -166 -27 -343 -17 -215 13 -1681 -8 -2274 -32
-119 -5 -150 -4 -157 7 -12 19 -11 362 1 393 l10 26 157 0 c87 0 253 5 368 11
116 6 280 14 365 19 85 4 530 7 988 7 l834 0 9 -21z m6187 -304 l84 -7 5 -85
c8 -118 3 -453 -7 -463 -4 -5 -72 -10 -151 -12 -79 -2 -205 -9 -279 -14 -74
-6 -302 -13 -506 -17 l-372 -7 -7 32 c-4 18 -5 33 -3 35 1 1 19 14 38 28 32
23 38 24 55 12 19 -14 77 -19 88 -7 4 3 2 13 -5 20 -6 8 -12 29 -12 46 -1 28
-5 32 -29 35 -17 2 -37 -4 -48 -14 -17 -15 -21 -16 -36 -2 -33 28 -53 29 -77
5 -13 -13 -25 -30 -28 -38 -4 -12 -7 -12 -21 0 -10 7 -17 22 -17 32 0 13 -7
19 -24 19 -13 0 -31 3 -40 6 -30 11 -16 -19 25 -58 43 -40 43 -38 -11 -55 -30
-9 21 -25 60 -19 l38 6 4 -41 c2 -22 1 -42 -2 -44 -3 -1 -97 -4 -210 -6 l-205
-4 -3 44 c-2 32 1 47 12 53 22 12 20 35 -3 41 -16 4 -20 18 -26 98 -13 186
-11 317 5 333 22 22 285 35 885 44 672 11 725 11 823 4z m-6511 -135 l373 -2
0 -24 0 -24 -722 3 c-819 4 -1631 -11 -1843 -34 -225 -25 -210 -25 -213 6 l-3
26 93 6 c331 20 504 27 823 32 198 4 466 10 595 14 129 4 300 5 380 3 80 -2
313 -4 517 -6z m-197 -82 c278 -3 520 -8 539 -11 l34 -5 -7 -262 c-4 -144 -11
-296 -14 -337 l-7 -75 -630 -1 c-387 0 -678 -5 -755 -12 -368 -33 -528 -39
-1032 -34 l-308 2 0 28 c0 15 -5 33 -10 38 -11 11 -30 458 -23 529 9 87 1 81
120 94 60 6 149 16 198 21 50 6 337 15 639 20 301 5 551 12 555 16 3 3 49 3
101 0 52 -4 322 -9 600 -11z m5492 -247 c-15 -15 -26 -4 -18 18 5 13 9 15 18
6 9 -9 9 -15 0 -24z m-552 -49 c0 -13 -80 -51 -96 -45 -14 5 -20 76 -8 88 7 8
104 -32 104 -43z m-4048 -16 c32 -32 58 -62 58 -68 0 -13 -133 -95 -155 -95
-30 0 -145 91 -145 115 0 5 10 17 23 25 42 27 142 80 152 80 5 0 35 -26 67
-57z m5903 -100 l0 -22 -360 -6 c-198 -3 -403 -10 -455 -15 -53 -6 -197 -15
-320 -20 -124 -5 -311 -14 -417 -21 -105 -6 -198 -9 -207 -6 -9 4 -16 17 -16
31 0 18 7 25 28 30 15 3 347 11 737 17 514 8 713 14 722 23 9 8 59 11 150 11
136 0 138 0 138 -22z m-155 -263 c0 -5 -4 -10 -10 -10 -5 0 -10 5 -10 10 0 6
5 10 10 10 6 0 10 -4 10 -10z m-6285 -60 c3 -5 -9 -26 -28 -47 -71 -80 -71
-80 -36 -142 18 -31 53 -79 79 -107 50 -53 55 -62 65 -135 10 -79 14 -81 156
-81 68 0 268 5 444 10 176 6 447 8 603 5 262 -6 283 -7 279 -23 -10 -38 10
-42 45 -11 20 17 38 31 41 31 2 0 8 -62 12 -137 5 -110 11 -147 28 -180 11
-24 25 -43 31 -44 71 -4 518 4 576 11 42 5 200 11 351 15 151 3 319 10 374 15
157 15 700 48 915 56 107 4 201 11 208 17 8 6 12 45 12 128 0 66 4 119 9 119
5 0 35 -12 67 -27 33 -15 100 -41 149 -58 90 -30 90 -31 90 -65 0 -26 6 -37
24 -46 24 -12 27 -12 137 33 14 5 24 -64 24 -168 l0 -78 -46 -20 c-25 -12 -65
-26 -88 -33 -61 -17 -73 -31 -58 -70 12 -32 11 -34 -46 -91 -31 -32 -111 -95
-177 -139 -66 -45 -147 -103 -181 -129 -33 -26 -67 -49 -74 -51 -12 -2 -14 29
-15 182 0 221 -5 234 -82 246 -67 10 -1182 -4 -1328 -17 -66 -6 -271 -14 -455
-19 -345 -8 -385 -11 -400 -26 -5 -5 -13 -59 -17 -119 -9 -121 -3 -114 -81
-100 -39 6 -43 5 -40 -11 2 -11 18 -23 43 -30 22 -7 33 -13 25 -14 -32 -4
-285 2 -293 7 -20 12 16 31 49 26 32 -5 50 10 22 19 -6 2 3 10 21 17 20 9 31
20 29 30 -4 21 -44 26 -71 8 -28 -18 -42 -16 -39 6 4 20 -2 21 -29 7 -23 -13
-25 -38 -4 -46 12 -5 13 -10 4 -20 -20 -24 -39 -16 -39 15 0 60 -23 77 -64 46
-25 -19 -36 -19 -36 0 0 18 -41 20 -58 3 -9 -9 -16 -7 -31 6 -23 21 -54 14
-67 -14 -7 -14 -13 -17 -24 -10 -13 9 -13 11 0 20 11 7 12 12 4 20 -8 8 -19 5
-39 -13 l-28 -23 23 -22 c20 -19 21 -22 7 -28 -10 -3 -17 -12 -17 -20 0 -10
-13 -14 -43 -14 l-43 0 0 48 c0 26 -8 61 -16 77 l-16 31 39 21 c21 12 41 17
45 12 7 -12 51 -12 59 0 6 11 60 8 89 -4 11 -5 26 -3 37 3 10 7 27 12 38 12
17 0 18 3 8 30 -13 35 -28 38 -42 8 -16 -35 -35 -34 -35 1 0 21 -5 31 -15 31
-10 0 -15 -10 -15 -30 0 -38 -15 -38 -34 -1 -22 42 -52 46 -78 11 l-21 -29
-25 19 c-14 11 -31 20 -38 20 -8 0 -14 5 -14 10 0 6 5 10 10 10 6 0 10 7 10
15 0 19 -30 19 -58 -1 -30 -21 -14 -49 33 -58 53 -10 44 -33 -19 -46 -27 -5
-31 -10 -28 -33 3 -19 -1 -27 -12 -27 -20 0 -22 -72 -3 -89 18 -14 27 -4 27
28 0 14 5 33 10 41 15 24 32 -2 28 -46 -3 -35 -6 -39 -33 -42 -16 -2 -32 -7
-35 -11 -5 -8 -1107 3 -1115 10 -2 2 -8 69 -15 149 -6 80 -19 217 -30 305 -15
124 -19 204 -16 354 4 178 6 196 26 222 67 92 83 128 52 122 -15 -4 -66 64
-90 120 l-21 47 219 0 c129 0 221 -4 225 -10z m-391 -143 l28 -36 -33 -46
c-18 -25 -38 -45 -45 -45 -17 0 -112 81 -113 97 -1 6 18 46 40 88 l42 77 27
-49 c14 -28 39 -66 54 -86z m466 81 c17 -60 48 -118 65 -125 25 -9 17 -27 -30
-73 l-45 -44 -41 39 c-46 45 -69 84 -69 115 0 21 84 130 100 130 4 0 13 -19
20 -42z m3834 -118 c89 0 166 -4 173 -8 23 -14 52 -497 31 -517 -4 -4 -128
-13 -275 -21 -311 -15 -724 -42 -770 -49 -54 -9 -782 -38 -1069 -42 -238 -4
-272 -2 -277 11 -11 28 -26 217 -33 412 l-6 191 98 9 c55 4 443 7 864 6 421
-1 801 3 845 8 44 4 120 7 169 4 49 -2 162 -4 250 -4z m2186 -36 c0 -8 -10
-14 -25 -14 -27 0 -32 9 -14 27 14 14 39 6 39 -13z m-5040 -123 c0 -11 -4 -23
-10 -26 -6 -4 -10 5 -10 19 0 14 5 26 10 26 6 0 10 -9 10 -19z m70 9 c0 -5 -5
-10 -11 -10 -5 0 -7 5 -4 10 3 6 8 10 11 10 2 0 4 -4 4 -10z m40 -30 c0 -5 -7
-10 -16 -10 -8 0 -12 5 -9 10 3 6 10 10 16 10 5 0 9 -4 9 -10z m4925 -53 c99
-6 218 -12 265 -12 116 -3 117 -3 125 -22 9 -22 18 -614 10 -661 -5 -27 -10
-32 -23 -26 -9 4 -309 10 -667 14 -357 4 -658 11 -667 15 -10 4 -16 16 -15 28
1 16 -3 22 -15 21 -23 -2 -24 33 -1 80 13 29 14 38 3 51 -19 23 -39 18 -77
-20 -20 -20 -36 -29 -38 -22 -2 7 -6 25 -10 40 -6 32 -28 32 -33 1 -5 -34 16
-77 34 -70 18 7 47 -23 69 -73 8 -18 15 -35 15 -36 0 -1 -58 -8 -130 -15 -143
-14 -195 -9 -210 20 -16 31 -42 343 -38 460 4 132 23 176 83 196 22 8 105 20
185 29 80 8 163 16 185 19 69 7 761 -5 950 -17z m-1498 -210 c-4 -12 -56 -32
-63 -24 -3 3 0 24 7 47 l13 42 23 -27 c13 -15 22 -32 20 -38z m18 -378 c-10
-32 -46 -89 -55 -89 -10 0 -50 54 -50 67 0 7 78 39 103 42 5 1 5 -9 2 -20z
m-733 -56 c55 -6 56 -11 60 -143 3 -84 -20 -450 -30 -492 l-7 -28 -534 -4
c-596 -5 -1327 -26 -1507 -42 -54 -5 -64 -3 -86 18 -22 20 -27 36 -37 128 -13
119 -15 489 -3 508 12 17 176 30 422 31 113 1 261 6 330 12 259 23 1235 32
1392 12z m-2908 -48 c-6 -16 -24 -21 -24 -7 0 11 11 22 21 22 5 0 6 -7 3 -15z
m116 -160 c0 -8 -4 -17 -10 -20 -6 -4 -10 5 -10 20 0 15 4 24 10 20 6 -3 10
-12 10 -20z m170 -8 c0 -8 9 -25 21 -38 l20 -24 -23 -6 c-34 -8 -183 4 -183
16 0 6 24 12 52 15 36 4 60 13 75 28 26 25 38 28 38 9z m-230 -47 c0 -5 -7
-10 -16 -10 -8 0 -12 5 -9 10 3 6 10 10 16 10 5 0 9 -4 9 -10z m-2255 -439
c404 -29 1128 -52 1710 -56 505 -3 576 -7 845 -50 85 -14 214 -34 285 -45 330
-50 370 -62 370 -117 0 -17 3 -35 8 -39 4 -4 5 -33 2 -63 -3 -31 -10 -127 -14
-215 -6 -109 -13 -161 -22 -166 -17 -11 -361 -2 -634 17 -244 17 -409 19 -515
6 -67 -8 -483 -2 -1075 16 -245 8 -418 7 -617 -1 -216 -8 -281 -8 -292 1 -8 7
-20 35 -27 62 -14 55 -22 64 -59 74 -18 4 -34 0 -53 -15 -32 -25 -35 -60 -7
-85 16 -14 24 -15 51 -6 37 13 36 13 41 -14 3 -20 -3 -20 -312 -23 -173 -2
-465 0 -648 4 l-334 6 9 127 c4 69 7 177 5 239 -4 142 17 217 82 286 35 38 49
46 77 46 19 0 39 4 45 9 5 6 29 12 54 14 78 8 879 -2 1025 -12z m3429 -597 c3
-9 6 -27 6 -41 0 -24 -2 -25 -46 -18 -90 13 -95 24 -26 53 59 25 59 25 66 6z
m-3470 -28 c-8 -20 -34 -29 -34 -12 0 13 13 23 32 25 4 1 5 -5 2 -13z m1263
-118 c164 -7 420 -9 686 -5 257 4 472 2 544 -4 65 -5 254 -16 421 -23 166 -7
306 -17 310 -22 5 -5 4 -139 -1 -299 -8 -213 -7 -326 2 -425 17 -204 15 -313
-7 -341 l-19 -22 -675 1 c-417 2 -715 7 -779 13 -64 7 -371 13 -797 14 -632 2
-695 4 -710 19 -12 12 -19 40 -22 93 -5 81 -25 111 -36 54 -4 -16 -15 -38 -25
-47 -18 -16 -19 -16 -19 19 0 43 -26 52 -36 13 -10 -39 16 -81 50 -81 23 0 31
-6 39 -28 5 -16 7 -30 4 -33 -7 -8 -1410 -9 -1438 -2 -34 10 -40 51 -22 140
11 55 11 64 -2 74 -20 15 -20 322 0 604 8 113 15 207 15 210 0 3 98 6 218 8
119 2 267 7 327 12 61 6 224 10 363 10 229 0 256 -2 290 -19 21 -11 55 -23 76
-26 31 -6 41 -4 61 15 24 23 28 23 182 18 87 -3 259 -3 383 1 220 6 642 -8
880 -28 273 -24 781 -44 1205 -47 226 -1 321 -6 384 -18 86 -16 101 -15 101 9
0 23 -150 35 -500 39 -515 5 -938 23 -1350 58 -74 6 -385 12 -691 13 -305 1
-560 5 -567 9 -7 4 -12 11 -12 15 0 12 425 27 680 24 124 -2 343 -8 487 -15z
m-1739 2 c341 0 522 -3 522 -10 0 -6 -113 -10 -317 -10 -175 0 -367 -4 -428
-9 -60 -5 -209 -11 -330 -13 l-220 -3 -3 22 c-3 20 2 22 60 26 35 2 92 3 128
1 36 -2 300 -4 588 -4z m3882 -711 c0 -39 -3 -69 -8 -67 -4 2 -29 12 -55 22
l-48 19 48 49 c26 26 51 48 55 48 4 0 8 -32 8 -71z"/>
<path d="M584 6356 c-20 -31 -40 -56 -44 -56 -4 0 -13 14 -20 31 -9 22 -18 29
-34 27 -19 -3 -21 -10 -24 -83 -2 -81 6 -113 27 -100 8 4 10 22 6 50 -7 46 5
65 25 40 20 -24 37 -18 60 20 12 19 26 35 31 35 5 0 9 -24 9 -54 0 -52 13 -79
29 -60 11 15 -3 197 -16 201 -7 3 -29 -21 -49 -51z"/>
<path d="M965 6310 c-8 -86 -17 -100 -69 -100 -33 0 -34 25 -4 57 21 23 21 23
1 23 -45 0 -74 -79 -35 -98 27 -14 142 -8 152 7 5 9 17 11 35 7 15 -4 25 -3
23 1 -2 4 -10 23 -17 41 -8 20 -20 32 -32 32 -16 0 -19 8 -19 55 0 40 -4 55
-14 55 -10 0 -16 -22 -21 -80z"/>
<path d="M1105 6320 c-11 -17 5 -32 21 -19 7 6 11 15 8 20 -7 12 -21 11 -29
-1z"/>
<path d="M1295 6285 c-14 -13 -25 -33 -25 -45 0 -30 -14 -24 -33 15 -20 42
-38 44 -66 8 -21 -27 -21 -28 -36 -9 -10 13 -18 17 -25 10 -14 -14 16 -55 35
-48 8 3 20 2 27 -2 7 -5 31 -9 54 -9 25 0 48 -7 58 -18 19 -18 76 -24 76 -7 0
6 -9 10 -20 10 -25 0 -25 12 0 35 22 20 26 55 8 73 -17 17 -26 15 -53 -13z
m35 -30 c0 -8 -4 -15 -10 -15 -5 0 -10 7 -10 15 0 8 5 15 10 15 6 0 10 -7 10
-15z"/>
<path d="M767 6283 c-4 -3 -7 -19 -7 -33 0 -30 -23 -56 -40 -45 -16 10 -12 33
10 45 11 6 20 15 20 20 0 17 -36 11 -53 -8 -24 -26 -21 -59 7 -77 22 -15 27
-15 56 0 17 9 36 13 42 9 8 -5 9 5 4 36 -9 58 -20 73 -39 53z"/>
<path d="M2387 6282 c-29 -12 -57 -63 -46 -84 14 -26 23 -22 38 17 10 28 20
37 43 42 29 6 30 7 13 20 -21 14 -22 15 -48 5z"/>
<path d="M4545 6245 c-58 -20 -95 -66 -95 -115 0 -97 105 -110 185 -23 41 45
45 81 13 117 -31 33 -55 38 -103 21z m73 -27 c48 -48 -57 -170 -118 -138 -28
15 -27 80 1 106 42 38 96 53 117 32z"/>
<path d="M4917 6243 c-3 -10 -8 -35 -12 -57 -6 -35 -9 -38 -33 -33 -20 4 -34
-3 -60 -29 -28 -28 -31 -36 -22 -54 14 -26 50 -26 83 0 l26 20 19 -20 c19 -20
19 -20 25 76 4 53 4 100 1 105 -9 15 -22 10 -27 -8z m-60 -140 c-9 -9 -19 -14
-23 -11 -10 10 6 28 24 28 15 0 15 -1 -1 -17z"/>
<path d="M4702 6164 c-18 -12 -22 -24 -20 -52 2 -26 8 -38 21 -40 14 -3 17 1
12 21 -8 32 17 57 57 57 26 0 29 2 18 15 -16 20 -60 19 -88 -1z"/>
<path d="M4995 6156 c-32 -32 -34 -79 -3 -100 25 -18 88 -22 88 -6 0 6 -10 10
-23 10 -36 0 -39 10 -11 43 28 33 27 44 -4 65 -19 13 -23 11 -47 -12z"/>
<path d="M5173 6151 c-34 -21 -48 -50 -38 -81 9 -27 35 -26 35 3 0 40 35 67
87 67 27 1 27 1 9 15 -27 20 -55 19 -93 -4z"/>
<path d="M8054 6115 c-4 -10 -10 -31 -13 -49 -7 -30 -8 -31 -56 -29 -87 4
-129 15 -162 44 -39 33 -96 47 -119 28 -70 -58 -49 -179 30 -179 18 0 45 9 59
20 30 24 35 24 58 4 23 -21 39 -10 39 27 0 26 4 30 22 27 15 -2 24 -13 30 -35
10 -39 40 -51 74 -28 23 15 27 15 43 1 10 -9 20 -13 24 -10 3 3 21 1 40 -5 23
-8 42 -8 60 -2 23 9 25 14 20 53 -3 24 -10 49 -16 56 -11 13 -45 12 -79 -2
-14 -7 -17 0 -20 40 -3 48 -22 70 -34 39z m-256 -64 c5 -30 -44 -83 -73 -79
-27 4 -33 62 -9 89 26 29 78 22 82 -10z"/>
<path d="M8554 6053 c-30 -68 -25 -114 17 -145 21 -16 29 -17 55 -7 16 7 54
13 84 13 52 1 55 2 55 27 0 14 6 33 14 42 15 19 9 45 -15 54 -25 9 -83 -24
-105 -61 -26 -45 -79 -59 -79 -22 0 8 14 19 30 26 35 14 39 36 9 45 -16 5 -19
12 -14 34 4 19 1 32 -9 40 -13 11 -19 4 -42 -46z"/>
<path d="M8380 6086 c0 -7 10 -20 22 -28 l23 -15 -28 -37 c-40 -51 -34 -80 17
-84 78 -7 112 17 59 40 -16 7 -29 13 -31 13 -1 1 4 18 12 37 15 36 32 48 67
48 25 0 24 16 0 30 -30 16 -141 13 -141 -4z"/>
<path d="M8273 6040 c-28 -11 -39 -53 -24 -87 15 -32 35 -25 39 15 2 21 10 33
23 37 23 8 22 39 -1 42 -8 1 -25 -2 -37 -7z"/>
<path d="M8831 6036 c-7 -8 -11 -36 -9 -63 2 -36 7 -49 21 -51 13 -3 17 3 17
23 0 25 1 25 22 11 23 -17 48 -6 48 20 0 26 27 14 40 -16 12 -30 33 -39 45
-20 10 16 -38 105 -59 108 -10 2 -29 -1 -41 -8 -17 -9 -28 -9 -43 -1 -26 14
-27 14 -41 -3z"/>
<path d="M6387 5923 c-4 -3 -7 -42 -7 -85 0 -59 3 -79 13 -76 8 3 13 30 15 78
3 68 -5 100 -21 83z"/>
<path d="M4807 5913 c-2 -5 -12 -36 -22 -71 -15 -50 -16 -67 -7 -88 10 -21 18
-25 44 -22 17 2 33 9 36 16 3 9 -5 12 -24 10 -36 -4 -40 22 -6 37 26 11 28 23
6 32 -13 5 -15 15 -9 49 4 27 2 44 -4 44 -5 0 -12 -3 -14 -7z"/>
<path d="M4923 5897 c-13 -29 -3 -139 14 -144 6 -2 13 6 15 18 4 30 57 46 64
21 17 -54 40 -65 49 -23 5 22 12 31 27 31 30 0 16 24 -18 30 -20 4 -33 15 -45
38 -18 39 -35 52 -70 52 -17 0 -29 -8 -36 -23z m75 -31 c4 -18 -13 -36 -34
-36 -18 0 -26 31 -13 47 16 19 43 12 47 -11z"/>
<path d="M5651 5851 c2 -103 8 -117 53 -113 21 2 49 10 63 19 22 14 25 14 44
-3 16 -14 34 -18 87 -16 75 3 83 7 58 25 -16 12 -16 14 -2 26 24 20 19 34 -9
27 -16 -4 -34 0 -50 10 -21 14 -31 15 -50 6 -23 -11 -26 -9 -39 22 -17 42 -36
52 -103 58 l-53 5 1 -66z m118 14 c29 -28 -21 -109 -64 -103 -28 4 -35 96 -9
115 19 14 51 9 73 -12z"/>
<path d="M5520 5870 c0 -5 7 -10 16 -10 8 0 12 5 9 10 -3 6 -10 10 -16 10 -5
0 -9 -4 -9 -10z"/>
<path d="M4460 5800 c0 -62 20 -78 63 -48 15 11 34 17 42 14 8 -3 17 -1 20 3
3 5 -2 11 -10 15 -8 3 -15 12 -15 21 0 8 -7 15 -15 15 -8 0 -15 -6 -15 -13 0
-14 -31 -47 -43 -47 -4 0 -7 20 -7 45 0 25 -4 45 -10 45 -5 0 -10 -22 -10 -50z"/>
<path d="M4722 5838 c6 -18 28 -21 28 -4 0 9 -7 16 -16 16 -9 0 -14 -5 -12
-12z"/>
<path d="M5152 5825 c-8 -17 -8 -33 -2 -50 13 -35 29 -31 27 8 0 17 3 40 7 50
6 12 4 17 -6 17 -8 0 -20 -11 -26 -25z"/>
<path d="M5351 5831 c-11 -11 -27 -34 -36 -50 -17 -33 -45 -40 -64 -17 -12 14
-5 46 10 46 5 0 9 7 9 15 0 23 -26 18 -44 -10 -21 -32 -20 -48 2 -68 25 -23
169 -24 198 -2 11 8 14 15 7 15 -8 0 -13 13 -13 33 0 55 -34 73 -69 38z m21
-43 c-7 -7 -12 -8 -12 -2 0 14 12 26 19 19 2 -3 -1 -11 -7 -17z"/>
<path d="M4612 5828 c-15 -15 -16 -58 -1 -58 7 0 17 8 24 17 12 16 14 16 32
-4 20 -23 63 -40 63 -24 0 20 -13 41 -25 41 -6 0 -20 9 -30 20 -20 23 -45 26
-63 8z"/>
<path d="M6001 5806 c-10 -11 -8 -22 6 -48 l18 -33 3 33 c4 39 15 41 31 6 8
-18 15 -23 24 -17 14 11 57 11 73 0 7 -4 35 -2 64 3 34 6 58 6 70 0 20 -11 50
-4 50 11 0 5 -8 9 -18 9 -10 0 -29 11 -42 25 -29 31 -37 31 -68 3 -14 -13 -26
-18 -29 -13 -10 29 -22 37 -39 30 -27 -11 -104 -14 -104 -4 0 14 -26 10 -39
-5z"/>
<path d="M5547 5774 c-4 -4 -4 -11 -1 -16 6 -10 24 -1 24 13 0 10 -14 12 -23
3z"/>
<path d="M1130 5738 c-25 -41 -33 -68 -28 -103 3 -30 32 -55 45 -41 4 5 2 11
-4 13 -21 8 -15 65 12 108 29 47 30 55 10 55 -8 0 -24 -15 -35 -32z"/>
<path d="M902 5720 c5 -15 21 -17 26 -2 2 6 -4 12 -13 12 -9 0 -15 -4 -13 -10z"/>
<path d="M658 5684 c-13 -13 -20 -14 -38 -4 -34 18 -50 6 -50 -39 0 -43 17
-63 34 -40 6 8 19 13 28 11 9 -2 22 6 28 17 15 28 24 26 36 -7 9 -24 17 -29
47 -30 21 -1 45 6 59 17 20 16 26 17 42 6 22 -17 68 0 64 23 -4 21 -28 27 -28
8 0 -26 -18 -18 -35 14 -9 17 -20 30 -24 30 -5 0 -16 3 -24 6 -10 3 -26 -7
-43 -25 l-28 -31 -12 30 c-14 33 -32 38 -56 14z m142 -33 c0 -12 -20 -25 -27
-18 -7 7 6 27 18 27 5 0 9 -4 9 -9z"/>
<path d="M973 5690 c-17 -7 -23 -18 -23 -40 0 -35 19 -40 38 -10 7 11 16 20
21 20 5 0 13 -9 16 -20 3 -11 11 -20 16 -20 16 0 9 40 -11 60 -22 22 -25 23
-57 10z"/>
<path d="M7749 5744 c-7 -8 -14 -41 -17 -72 -2 -31 -8 -62 -13 -68 -5 -6 0
-28 12 -52 23 -47 49 -57 41 -17 -3 20 1 27 22 35 37 14 34 40 -4 40 -27 0
-30 3 -30 30 0 23 5 31 25 36 30 8 34 43 7 67 -23 21 -26 21 -43 1z"/>
<path d="M8791 5707 c-16 -48 -56 -81 -81 -67 -26 14 -25 27 1 35 23 8 22 38
-2 43 -22 4 -69 -36 -69 -58 0 -11 11 -27 25 -36 30 -19 23 -38 -11 -30 -26 7
-32 -5 -11 -21 18 -15 63 -24 81 -17 9 3 16 17 16 30 0 29 16 32 25 4 3 -11
15 -25 26 -31 21 -11 59 -4 59 12 0 5 7 9 15 9 8 0 25 12 39 27 l25 26 8 -34
c9 -34 43 -54 43 -25 0 32 -20 66 -39 66 -11 0 -21 6 -24 13 -3 9 -12 7 -36
-6 -31 -18 -33 -18 -46 0 -8 10 -12 25 -8 33 17 43 15 60 -5 60 -14 0 -24 -10
-31 -33z m54 -97 c3 -5 -3 -10 -15 -10 -12 0 -18 5 -15 10 3 6 10 10 15 10 5
0 12 -4 15 -10z"/>
<path d="M7851 5632 c4 -90 13 -119 28 -93 7 10 13 11 31 1 12 -6 29 -8 38 -5
43 18 79 22 96 9 13 -9 25 -10 46 -2 20 7 35 6 50 -2 19 -10 27 -8 52 10 28
21 30 21 49 5 16 -15 23 -16 49 -5 16 7 47 12 68 12 32 -1 41 4 56 29 9 16 24
29 32 29 16 0 16 2 8 24 -10 26 -37 19 -74 -19 -38 -37 -50 -43 -50 -21 0 7
-7 20 -16 27 -14 11 -18 11 -29 -4 -15 -21 -25 -22 -25 -3 0 24 -22 30 -36 11
-11 -15 -16 -16 -30 -5 -9 8 -35 15 -59 15 -41 2 -45 0 -55 -29 l-11 -31 -20
24 c-17 21 -27 24 -77 22 -31 -1 -61 -7 -67 -12 -7 -7 -13 7 -20 42 -6 29 -16
54 -24 57 -10 3 -12 -14 -10 -86z m169 -55 c0 -5 -4 -5 -10 -2 -5 3 -10 14
-10 23 0 15 2 15 10 2 5 -8 10 -19 10 -23z m-75 3 c-3 -5 -8 -10 -11 -10 -2 0
-4 5 -4 10 0 6 5 10 11 10 5 0 7 -4 4 -10z"/>
<path d="M8522 5689 c1 -12 9 -24 16 -27 9 -3 13 3 10 19 -1 12 -9 24 -16 27
-9 3 -13 -3 -10 -19z"/>
<path d="M8954 5674 c3 -9 6 -18 6 -20 0 -2 7 -4 15 -4 8 0 15 9 15 20 0 14
-7 20 -21 20 -15 0 -19 -4 -15 -16z"/>
<path d="M8528 5594 c-11 -10 3 -34 19 -34 8 0 13 7 11 17 -3 18 -20 27 -30
17z"/>
<path d="M8760 5336 c-13 -41 -45 -55 -80 -36 -17 9 -19 14 -10 25 29 35 -34
49 -65 15 -23 -25 -13 -48 29 -65 44 -19 50 -29 29 -50 -11 -12 -25 -15 -45
-11 -38 7 -33 -13 6 -33 35 -17 71 -3 88 34 15 32 23 32 38 -4 15 -36 60 -56
86 -37 20 15 10 40 -13 32 -18 -7 -43 10 -43 29 0 7 14 18 30 25 35 14 38 26
11 35 -13 4 -21 17 -23 37 -4 44 -24 46 -38 4z"/>
<path d="M8440 5330 c0 -13 7 -20 20 -20 18 0 19 3 10 20 -6 11 -15 20 -20 20
-6 0 -10 -9 -10 -20z"/>
<path d="M8962 5308 c2 -12 11 -24 21 -26 14 -3 18 1 15 20 -2 12 -11 24 -21
26 -14 3 -18 -1 -15 -20z"/>
<path d="M7736 5298 c-19 -27 -7 -53 29 -62 35 -9 26 -30 -13 -34 -35 -4 -42
-18 -14 -26 35 -11 137 -3 154 12 10 8 26 12 38 9 23 -6 24 2 10 54 -7 23 -19
40 -37 48 -23 11 -29 9 -53 -14 -25 -24 -50 -32 -63 -18 -4 3 -2 12 4 19 6 7
8 18 4 24 -11 17 -43 11 -59 -12z m154 -51 c0 -14 -20 -37 -32 -37 -12 0 -10
24 4 38 16 16 28 15 28 -1z"/>
<path d="M8135 5277 c-19 -47 -19 -60 3 -86 14 -18 30 -23 84 -26 70 -4 93 7
63 29 -14 10 -15 16 -4 38 14 31 8 53 -19 67 -31 16 -72 -21 -72 -65 0 -19 -5
-34 -10 -34 -17 0 -23 28 -12 59 8 23 7 32 -4 42 -11 9 -17 5 -29 -24z m107
-39 c-7 -7 -12 -8 -12 -2 0 14 12 26 19 19 2 -3 -1 -11 -7 -17z"/>
<path d="M7970 5257 c0 -54 30 -88 59 -70 10 7 28 9 40 6 19 -5 21 -2 20 28
-3 72 -25 93 -47 44 -16 -36 -42 -33 -42 5 0 20 -5 30 -15 30 -11 0 -15 -11
-15 -43z"/>
<path d="M8893 5278 c-26 -33 -24 -78 2 -78 11 0 55 69 55 85 0 11 -48 4 -57
-7z"/>
<path d="M8957 5239 c-7 -25 8 -69 23 -69 15 0 9 82 -6 87 -6 2 -14 -6 -17
-18z"/>
<path d="M8455 5231 c-8 -15 3 -31 21 -31 9 0 14 7 12 17 -4 20 -24 28 -33 14z"/>
<path d="M5097 5543 c-4 -3 -7 -15 -7 -25 0 -11 -7 -33 -16 -49 -15 -29 -18
-31 -68 -27 -62 4 -86 -11 -86 -52 0 -27 15 -40 47 -40 8 0 29 15 46 33 19 20
32 27 34 20 3 -7 12 -22 21 -33 16 -20 21 -20 77 -10 33 7 78 12 99 11 37 -1
38 0 22 17 -9 10 -16 26 -16 35 0 22 -45 33 -74 18 -15 -9 -30 -9 -48 -2 -24
9 -25 11 -15 50 11 39 1 72 -16 54z m-102 -122 c6 -10 -21 -41 -36 -41 -13 0
-11 24 3 38 14 14 25 15 33 3z m143 -18 c-4 -23 -48 -31 -48 -10 0 9 6 18 13
20 25 11 38 7 35 -10z"/>
<path d="M5347 5543 c-9 -8 -9 -126 -1 -147 14 -38 24 -10 24 69 0 78 -5 96
-23 78z"/>
<path d="M5435 5530 c-20 -22 -25 -90 -11 -143 8 -32 29 -31 34 1 2 12 15 25
34 31 41 15 41 15 33 -19 -5 -23 -3 -32 11 -37 11 -4 20 -1 22 7 3 8 15 24 27
36 25 25 16 44 -21 44 -16 0 -23 8 -27 30 -8 35 -40 70 -65 70 -11 0 -27 -9
-37 -20z m63 -38 c4 -26 -13 -52 -34 -52 -18 0 -27 36 -14 60 14 27 44 22 48
-8z"/>
<path d="M5967 5508 c-33 -57 -50 -113 -42 -138 9 -27 41 -43 62 -31 15 8 14
10 -10 16 -36 9 -35 36 3 111 16 32 30 65 30 72 0 25 -20 11 -43 -30z"/>
<path d="M4718 5481 c-24 -51 -26 -63 -17 -90 13 -36 41 -55 69 -46 29 9 25
23 -7 27 -37 4 -43 35 -9 44 31 7 34 20 6 27 -20 5 -20 7 -5 42 18 45 19 55 3
55 -7 0 -25 -27 -40 -59z"/>
<path d="M6064 5509 c32 -37 33 -76 5 -130 -21 -42 -20 -55 4 -46 20 8 47 70
47 109 0 44 -34 98 -61 98 -20 0 -20 -1 5 -31z"/>
<path d="M4860 5513 c-8 -3 -21 -11 -29 -17 -11 -9 -9 -12 10 -16 21 -5 24
-12 27 -59 4 -69 25 -63 32 9 4 47 8 55 29 60 14 3 26 11 29 18 4 12 -67 16
-98 5z"/>
<path d="M5629 5434 c-7 -21 -7 -35 2 -54 l12 -25 7 35 c4 19 9 41 11 49 8 27
-21 22 -32 -5z"/>
<path d="M5702 5425 c-34 -74 8 -112 101 -93 59 13 56 7 48 84 -2 21 -33 25
-58 9 -18 -12 -23 -24 -21 -43 3 -29 -16 -39 -41 -23 -12 8 -13 14 -3 36 7 14
12 32 12 40 0 24 -26 17 -38 -10z"/>
<path d="M1995 4958 c-8 -18 -19 -52 -25 -75 -12 -47 -30 -55 -61 -27 -17 15
-20 15 -47 -5 -29 -20 -29 -20 -47 -1 -21 23 -77 27 -93 7 -6 -6 -14 -25 -17
-40 -11 -42 -79 -50 -92 -11 -5 16 56 94 88 112 33 19 38 42 10 42 -23 0 -119
-102 -127 -136 -4 -16 -1 -31 11 -44 14 -16 31 -19 99 -18 76 0 83 2 112 30
31 29 31 29 37 8 4 -16 11 -20 26 -15 13 4 27 -1 38 -12 22 -22 124 -26 130
-5 3 7 -4 12 -14 12 -11 0 -22 3 -26 6 -9 10 4 34 19 34 19 0 18 10 -2 25 -15
11 -15 16 0 67 9 31 16 61 16 67 0 23 -21 10 -35 -21z m-210 -119 c8 -12 -23
-49 -42 -49 -16 0 -17 14 -3 41 12 21 35 25 45 8z m174 -58 c-3 -6 -10 -7 -18
-2 -7 5 -10 14 -6 21 9 14 29 -2 24 -19z"/>
<path d="M2388 4878 c-5 -90 3 -128 21 -99 14 22 22 137 11 165 -18 47 -27 27
-32 -66z"/>
<path d="M2306 4933 c-4 -15 -7 -54 -8 -85 -2 -58 12 -88 38 -88 17 0 18 16 3
25 -6 5 -9 38 -7 88 2 54 -1 81 -9 84 -6 2 -14 -9 -17 -24z"/>
<path d="M457 4935 c-27 -16 -28 -17 -25 -103 3 -83 4 -87 26 -90 62 -9 142
63 142 127 0 25 -7 44 -19 55 -27 25 -90 30 -124 11z m96 -32 c4 -2 7 -18 7
-35 0 -33 -60 -103 -82 -95 -19 6 -17 125 2 137 13 8 52 4 73 -7z"/>
<path d="M2626 4860 c-32 -30 -43 -46 -39 -61 7 -26 34 -21 49 9 23 46 47 64
78 58 29 -6 29 -6 11 14 -27 30 -50 25 -99 -20z"/>
<path d="M2483 4875 c-47 -20 -55 -61 -19 -92 28 -24 70 -31 81 -13 3 6 -3 10
-14 10 -32 0 -33 17 -2 28 37 13 46 47 18 67 -26 18 -24 18 -64 0z m42 -36
c-8 -12 -35 -12 -35 0 0 11 22 20 33 14 4 -2 5 -9 2 -14z"/>
<path d="M1257 4862 c-24 -26 -21 -41 8 -48 33 -8 27 -28 -9 -32 -22 -3 -25
-6 -16 -17 8 -10 30 -12 88 -8 42 3 81 9 87 14 5 6 2 9 -8 9 -21 0 -22 13 -2
30 22 18 18 39 -9 51 -20 10 -31 8 -61 -11 -20 -12 -39 -19 -43 -15 -4 3 1 11
11 16 9 6 15 14 12 20 -10 15 -41 10 -58 -9z"/>
<path d="M619 4846 c-13 -27 -4 -96 11 -96 22 0 25 7 22 46 -2 23 1 45 7 49
18 10 12 25 -9 25 -12 0 -25 -10 -31 -24z"/>
<path d="M850 4856 c-22 -13 -26 -23 -30 -83 -7 -77 4 -133 25 -133 11 0 15
13 15 49 0 44 3 50 29 61 16 6 37 20 47 31 17 19 18 19 40 -2 41 -38 136 -22
148 26 8 32 26 28 44 -8 14 -30 32 -27 32 4 0 46 -72 78 -100 44 -12 -14 -15
-14 -30 0 -23 20 -66 19 -88 -3 -18 -18 -20 -18 -46 5 -31 26 -50 28 -86 9z
m57 -31 c6 -18 -23 -55 -44 -55 -18 0 -17 35 3 54 20 20 33 20 41 1z m162 -36
c-25 -16 -32 -9 -13 12 12 13 20 16 22 9 3 -7 -2 -16 -9 -21z"/>
<path d="M1451 4844 c-25 -32 -26 -47 -6 -64 19 -16 32 -5 37 30 2 14 13 29
26 35 31 14 28 25 -7 25 -20 0 -36 -9 -50 -26z"/>
<path d="M2084 4845 c-26 -26 -29 -55 -7 -62 6 -2 19 9 27 25 8 16 22 32 31
35 22 9 18 27 -5 27 -12 0 -32 -11 -46 -25z"/>
<path d="M700 4835 c-26 -28 -20 -41 20 -47 35 -4 31 -21 -8 -33 -18 -5 -31
-14 -29 -20 6 -14 55 -9 83 10 34 22 31 51 -8 64 -30 11 -31 12 -13 31 18 19
17 20 -2 20 -11 0 -30 -11 -43 -25z"/>
<path d="M2168 4843 c-26 -31 -30 -44 -18 -58 13 -16 47 -19 75 -9 19 8 44 54
38 72 -7 19 -77 15 -95 -5z m56 -16 c-6 -16 -33 -31 -41 -23 -3 2 5 14 17 26
23 23 34 22 24 -3z"/>
<path d="M8531 4645 c-11 -14 -23 -40 -26 -58 -4 -18 -11 -36 -15 -42 -9 -11
35 -85 50 -85 6 0 10 11 10 25 0 18 5 25 19 25 11 0 23 -4 26 -10 6 -9 91 -7
101 3 12 12 -27 65 -56 77 -28 12 -32 11 -46 -9 -21 -29 -54 -28 -54 2 0 30
24 64 34 49 11 -19 26 -14 26 8 0 16 -26 40 -44 40 -2 0 -14 -11 -25 -25z
m104 -105 c-3 -5 -8 -10 -11 -10 -2 0 -4 5 -4 10 0 6 5 10 11 10 5 0 7 -4 4
-10z"/>
<path d="M8169 4621 c-13 -44 -44 -65 -71 -48 -26 17 -70 -7 -66 -36 2 -17 10
-22 33 -23 17 -1 38 -4 48 -9 20 -8 21 -2 7 26 -16 29 5 24 40 -11 33 -33 61
-38 80 -16 8 11 24 13 61 9 l49 -6 -6 34 c-9 55 -12 59 -42 59 -36 0 -52 -16
-52 -52 0 -23 -4 -28 -25 -28 -27 0 -32 9 -13 28 8 8 8 15 -2 26 -8 10 -10 28
-6 51 10 51 -19 48 -35 -4z"/>
<path d="M7721 4600 l-22 -39 23 -15 c26 -16 138 -20 138 -4 0 5 -9 12 -20 15
-24 6 -26 35 -5 53 11 9 12 17 6 23 -16 16 -61 -19 -61 -48 0 -14 -6 -25 -13
-25 -25 0 -27 13 -6 36 21 23 19 44 -5 44 -7 0 -22 -18 -35 -40z"/>
<path d="M7900 4625 c-10 -12 -10 -18 0 -30 10 -12 10 -21 0 -46 -16 -38 -8
-46 58 -55 43 -5 52 -4 52 9 0 16 -20 27 -51 27 -22 0 -23 3 -7 47 9 25 18 33
36 33 43 0 17 25 -30 28 -31 2 -49 -2 -58 -13z"/>
<path d="M9020 4607 c0 -7 5 -18 12 -25 10 -10 8 -19 -5 -41 -24 -41 -3 -51
34 -15 36 35 38 67 4 82 -33 15 -45 15 -45 -1z"/>
<path d="M8915 4601 c-3 -5 4 -16 16 -24 18 -13 19 -18 9 -37 -19 -36 4 -49
35 -20 35 33 32 58 -10 76 -41 17 -42 17 -50 5z"/>
<path d="M8402 4558 c-11 -17 -18 -37 -15 -45 9 -22 32 -15 48 16 8 16 20 31
27 33 6 2 8 10 4 16 -13 22 -44 12 -64 -20z"/>
<path d="M8730 4571 c-29 -55 9 -96 79 -85 38 6 41 9 41 39 0 40 -20 58 -53
50 -14 -4 -28 -2 -31 4 -11 17 -24 13 -36 -8z m40 -42 c0 -5 -4 -7 -10 -4 -13
8 -13 15 0 15 6 0 10 -5 10 -11z"/>
<path d="M7752 4394 c-16 -11 -22 -25 -22 -53 0 -106 66 -156 127 -95 l25 25
24 -22 c13 -12 25 -18 25 -13 3 24 -5 51 -22 73 -10 13 -19 29 -19 35 0 7 -13
24 -28 39 -32 31 -76 35 -110 11z m79 -24 c25 -14 25 -60 -2 -94 -29 -37 -45
-33 -53 13 -6 41 0 71 18 83 14 10 14 10 37 -2z"/>
<path d="M8447 4342 c-21 -23 -21 -38 -1 -50 9 -5 14 -14 10 -21 -13 -21 -41
-11 -56 21 -21 45 -43 55 -75 38 -38 -20 -51 -48 -31 -68 14 -14 17 -13 37 12
l21 27 33 -35 c36 -40 76 -47 106 -20 17 15 21 15 55 -1 28 -13 39 -14 48 -5
8 10 8 14 -2 17 -10 4 -8 11 8 28 18 19 20 27 11 43 -6 12 -20 24 -31 27 -23
7 -70 -18 -70 -38 0 -6 -6 -1 -13 12 -16 32 -30 36 -50 13z"/>
<path d="M8671 4329 c-29 -27 -32 -34 -22 -55 15 -33 37 -30 50 6 6 17 21 34
35 40 29 11 33 25 10 34 -27 10 -38 6 -73 -25z"/>
<path d="M2087 4418 c-37 -50 -47 -74 -49 -114 -2 -42 28 -74 68 -74 36 0 38
18 2 28 -46 12 -49 49 -9 114 33 53 36 64 22 73 -5 3 -21 -9 -34 -27z"/>
<path d="M2317 4424 c-9 -10 -9 -116 1 -130 4 -6 21 -14 38 -18 42 -9 86 25
82 63 -2 21 -9 27 -34 29 -25 2 -33 -2 -45 -25 l-14 -28 -3 50 c-3 50 -12 71
-25 59z"/>
<path d="M1650 4394 c-6 -14 -10 -30 -10 -36 0 -5 -7 -23 -17 -38 -16 -28 -16
-29 13 -54 18 -16 37 -24 49 -22 86 20 115 29 115 37 0 5 -7 9 -15 9 -8 0 -15
5 -15 10 0 6 4 10 9 10 15 0 22 32 10 46 -16 19 -39 17 -69 -6 -35 -27 -54
-26 -46 3 18 66 18 67 2 67 -9 0 -21 -12 -26 -26z m40 -115 c0 -5 -4 -9 -10
-9 -5 0 -10 7 -10 16 0 8 5 12 10 9 6 -3 10 -10 10 -16z"/>
<path d="M2181 4409 c-22 -9 -23 -13 -16 -66 4 -31 9 -62 12 -70 8 -20 33 -16
33 6 0 13 10 20 31 25 38 7 34 30 -7 31 -22 0 -30 5 -32 23 -3 19 1 22 32 22
38 0 57 17 35 31 -18 11 -57 10 -88 -2z"/>
<path d="M1538 4393 c-46 -13 -63 -36 -35 -46 9 -3 6 -16 -11 -48 -12 -24 -22
-47 -22 -51 0 -4 28 -6 63 -5 65 2 78 15 30 31 -16 5 -29 10 -30 10 -1 1 2 18
7 38 7 25 19 39 40 48 17 7 30 19 30 26 0 17 -10 16 -72 -3z"/>
<path d="M500 4391 c-26 -7 -26 -6 -22 -106 4 -80 72 -112 124 -57 53 54 61
111 22 147 -28 26 -70 31 -124 16z m106 -46 c14 -36 -54 -142 -76 -118 -10 10
-20 120 -13 127 13 13 84 6 89 -9z"/>
<path d="M2791 4374 c-12 -15 -21 -31 -21 -37 0 -6 -7 -2 -15 9 -14 18 -15 18
-39 -11 -23 -28 -25 -29 -31 -10 -13 40 -22 50 -49 53 -33 4 -55 -20 -56 -61
0 -33 22 -44 57 -28 19 9 29 9 39 0 8 -7 24 -8 41 -4 16 5 38 7 51 6 12 -1 22
2 22 7 0 5 11 26 25 46 37 54 15 80 -24 30z"/>
<path d="M2527 4363 c-24 -44 -35 -49 -47 -17 -14 35 -34 18 -25 -19 20 -77
103 -42 93 39 l-3 29 -18 -32z"/>
<path d="M1920 4355 c-9 -11 -16 -12 -30 -3 -27 17 -50 3 -50 -31 0 -27 3 -29
38 -28 20 0 44 6 53 14 14 12 18 10 29 -17 7 -16 18 -30 25 -30 13 0 10 18
-16 88 -10 25 -31 29 -49 7z"/>
<path d="M1242 4327 c-26 -28 -27 -31 -5 -52 14 -14 14 -18 2 -26 -21 -13 -33
-6 -45 29 -16 49 -30 59 -53 38 -10 -9 -25 -16 -32 -14 -8 2 -14 -5 -14 -16 0
-11 -6 -21 -13 -24 -9 -3 -11 3 -7 20 13 52 -74 79 -90 28 -16 -50 39 -99 91
-80 15 6 35 8 45 5 12 -4 21 -1 25 10 6 14 9 14 28 -3 24 -21 77 -27 106 -12
25 13 26 46 3 59 -14 7 -15 12 -4 25 12 15 8 36 -8 36 -4 0 -17 -10 -29 -23z
m-210 -39 c-7 -7 -12 -8 -12 -2 0 14 12 26 19 19 2 -3 -1 -11 -7 -17z"/>
<path d="M1352 4343 c-7 -3 -19 -18 -28 -35 -14 -27 -14 -31 2 -49 18 -20 84
-27 84 -9 0 6 -7 10 -15 10 -8 0 -15 5 -15 10 0 6 4 10 10 10 5 0 15 10 21 22
17 31 -19 57 -59 41z"/>
<path d="M673 4328 c2 -7 10 -13 17 -13 7 0 15 6 18 13 2 7 -5 12 -18 12 -13
0 -20 -5 -17 -12z"/>
<path d="M869 4323 c-13 -3 -17 -23 -22 -94 -7 -89 3 -137 24 -124 5 4 9 24 9
45 0 51 8 70 31 70 27 0 60 36 52 57 -16 45 -45 60 -94 46z m56 -49 c0 -10 -8
-20 -17 -22 -18 -3 -26 27 -11 42 12 11 28 0 28 -20z"/>
<path d="M2883 4313 c2 -10 -3 -31 -11 -46 -16 -33 -10 -46 13 -27 28 23 37
48 25 70 -13 25 -33 26 -27 3z"/>
<path d="M739 4304 c-16 -20 -1 -48 30 -52 33 -5 25 -22 -10 -22 -27 0 -30 -2
-19 -16 17 -20 70 -14 84 9 9 15 6 22 -18 41 -18 15 -24 26 -17 30 6 4 9 12 6
17 -9 14 -41 11 -56 -7z"/>
<path d="M654 4287 c-6 -18 13 -67 26 -67 11 0 14 39 4 64 -7 19 -23 21 -30 3z"/>
<path d="M2880 4207 c0 -7 13 -26 29 -41 16 -16 32 -39 35 -52 8 -32 -16 -82
-59 -124 -38 -37 -45 -53 -17 -43 68 25 119 105 108 168 -10 51 -96 134 -96
92z"/>
<path d="M2202 4163 c-18 -7 -33 -39 -26 -57 3 -8 22 -20 41 -27 31 -10 33
-13 20 -26 -8 -8 -33 -17 -56 -20 -42 -6 -53 -16 -25 -27 25 -10 59 -7 95 8
24 10 37 11 50 3 13 -8 29 -7 61 3 54 17 51 15 39 37 -5 10 -12 25 -14 34 -7
23 -66 33 -87 14 -20 -18 -31 -19 -65 -3 -23 10 -24 13 -9 29 23 26 9 45 -24
32z m142 -104 c-9 -10 -21 -19 -26 -19 -13 0 -9 17 8 34 22 23 39 8 18 -15z"/>
<path d="M2668 4120 c-15 -11 -28 -30 -30 -43 -2 -14 -11 -23 -25 -25 -26 -4
-30 16 -11 48 7 10 9 22 5 26 -10 11 -47 -26 -47 -47 0 -32 -20 -31 -31 0 -13
38 -26 39 -41 6 -16 -35 -38 -32 -38 6 0 20 -4 29 -12 27 -17 -6 -22 -52 -8
-78 11 -21 44 -27 55 -10 6 10 65 8 95 -3 33 -12 210 -18 210 -8 0 6 -8 11
-17 11 -10 0 -25 4 -33 10 -12 7 -12 12 0 35 28 51 -24 84 -72 45z m50 -22
c-6 -16 -36 -34 -44 -25 -9 9 15 37 33 37 8 0 13 -5 11 -12z"/>
<path d="M4470 3185 c0 -9 8 -30 17 -48 15 -28 18 -29 21 -11 4 26 -14 74 -28
74 -5 0 -10 -7 -10 -15z"/>
<path d="M4167 2722 c-20 -22 -22 -53 -5 -70 7 -7 42 -12 86 -12 60 0 72 3 64
13 -6 7 -10 26 -9 43 2 25 -2 29 -25 32 -36 4 -68 -14 -68 -38 0 -11 -6 -20
-13 -20 -23 0 -27 12 -12 34 27 37 12 51 -18 18z m100 -29 c-9 -9 -19 -14 -23
-11 -10 10 6 28 24 28 15 0 15 -1 -1 -17z"/>
<path d="M3875 2533 c0 -31 5 -48 14 -51 11 -4 13 3 8 31 -3 20 -1 39 4 42 15
10 10 25 -8 25 -15 0 -18 -9 -18 -47z"/>
<path d="M4493 2561 c-34 -22 -57 -56 -48 -71 11 -17 25 -11 59 25 19 20 43
35 56 35 29 0 20 24 -11 28 -13 1 -38 -6 -56 -17z"/>
<path d="M5995 3544 c-22 -7 -41 -14 -42 -14 -6 0 -2 -78 6 -119 13 -67 56
-81 110 -35 55 46 50 138 -8 168 -22 12 -32 12 -66 0z m63 -36 c24 -24 6 -100
-26 -113 -20 -7 -21 -6 -28 48 -9 63 21 98 54 65z"/>
<path d="M5270 3518 c-32 -34 -60 -93 -60 -128 0 -62 65 -89 129 -52 25 13 31
24 31 50 0 35 23 53 42 34 8 -8 8 -18 1 -35 -7 -15 -7 -29 -2 -40 13 -22 68
-31 104 -16 l30 12 -35 6 -34 6 27 18 c17 11 27 26 27 43 0 30 -23 40 -57 25
-22 -10 -32 -9 -58 5 -40 21 -61 14 -70 -24 -3 -17 -13 -33 -20 -36 -8 -3 -12
-12 -9 -21 10 -25 -62 -20 -76 5 -14 25 15 93 54 129 14 14 26 28 26 33 0 16
-30 8 -50 -14z m230 -108 c0 -11 -33 -30 -52 -30 -7 1 -3 9 11 20 25 22 41 26
41 10z"/>
<path d="M4815 3501 c-3 -6 4 -15 16 -22 19 -10 21 -17 16 -60 -3 -27 -14 -63
-24 -79 -21 -37 -13 -46 28 -31 18 6 47 11 65 11 50 0 41 18 -11 26 -36 5 -45
10 -41 23 3 9 8 37 11 63 6 41 10 48 36 53 16 4 29 11 29 16 0 12 -117 12
-125 0z"/>
<path d="M6473 3469 c-30 -19 -34 -19 -55 -5 -12 9 -32 16 -44 16 -22 0 -54
-28 -54 -48 0 -18 -20 -25 -36 -11 -11 9 -12 14 -3 19 14 9 3 30 -15 30 -8 0
-24 -9 -37 -20 l-24 -20 23 -19 c27 -24 28 -31 1 -31 -30 0 -18 -24 14 -28 14
-2 35 2 46 7 18 10 21 7 26 -26 11 -63 21 -88 37 -91 16 -3 28 34 28 84 0 31
59 61 89 45 30 -16 82 -14 75 3 -9 24 17 29 33 7 17 -25 40 -14 45 22 4 32 19
27 32 -12 6 -19 17 -37 25 -39 11 -4 13 4 8 37 -8 64 -53 101 -84 70 -7 -7
-20 -4 -44 10 -42 26 -46 26 -86 0z m65 -31 c-3 -7 -17 -15 -33 -16 -25 -3
-27 -2 -16 12 16 19 55 22 49 4z m-132 -9 c3 -6 -1 -18 -10 -27 -18 -18 -21
-16 -30 16 -6 18 -3 22 13 22 11 0 23 -5 27 -11z"/>
<path d="M6140 3465 c0 -10 7 -15 18 -13 22 4 22 22 0 26 -11 2 -18 -3 -18
-13z"/>
<path d="M6726 3465 c-9 -9 -16 -20 -16 -25 0 -14 30 -40 46 -40 26 0 14 -20
-16 -27 -25 -5 -28 -8 -18 -20 8 -11 22 -13 47 -8 20 3 53 6 75 6 21 0 46 3
55 8 15 9 15 10 -1 16 -16 6 -16 9 -1 31 14 23 14 26 -2 44 -23 25 -55 25 -88
0 -32 -25 -35 -25 -39 2 -4 28 -21 33 -42 13z"/>
<path d="M5066 3440 c-32 -38 -33 -64 -4 -84 23 -16 73 -21 102 -10 31 12 15
24 -31 25 -36 0 -43 2 -28 9 52 20 61 83 14 88 -19 2 -33 -5 -53 -28z m52 -12
c-3 -7 -13 -15 -24 -17 -16 -3 -17 -1 -5 13 16 19 34 21 29 4z"/>
<path d="M5726 3451 c-20 -22 -19 -82 2 -89 6 -2 12 3 12 12 0 19 11 21 29 4
10 -11 19 -6 45 25 18 20 36 37 39 37 3 0 11 -16 17 -35 15 -47 45 -49 35 -2
-16 71 -48 87 -92 45 l-23 -22 -16 22 c-19 27 -26 27 -48 3z"/>
<path d="M6970 3457 c-29 -15 -53 -58 -44 -81 10 -27 33 -18 42 17 7 28 13 32
45 35 43 4 47 14 12 30 -31 14 -25 14 -55 -1z"/>
<path d="M4960 3421 c-36 -35 -37 -45 -8 -65 29 -21 88 -21 88 -1 0 10 -11 15
-35 15 -34 0 -46 12 -25 25 5 3 14 15 20 25 17 33 -8 34 -40 1z"/>
<path d="M5583 3418 c-29 -32 -36 -61 -19 -84 15 -19 16 -19 56 3 23 12 48 19
56 16 20 -7 18 1 -11 47 -29 45 -52 50 -82 18z m45 -29 c-3 -24 -33 -48 -44
-36 -4 4 -2 18 4 32 14 31 45 34 40 4z"/>
<path d="M6137 3434 c-7 -12 19 -74 33 -74 5 0 10 9 10 19 0 23 -35 68 -43 55z"/>
<path d="M4878 3223 c-88 -94 -62 -185 44 -153 27 8 44 8 58 0 14 -8 29 -7 55
4 20 9 37 11 40 5 11 -17 44 -9 56 12 11 21 11 21 34 -7 29 -37 39 -27 26 24
-15 53 -34 69 -65 52 -18 -9 -28 -9 -46 0 -13 7 -39 9 -69 5 -37 -5 -50 -12
-62 -34 -17 -29 -58 -44 -80 -30 -17 10 5 62 43 100 28 28 30 49 4 49 -7 0
-24 -12 -38 -27z m167 -82 c5 -9 -31 -41 -47 -41 -15 0 -8 29 10 39 22 13 29
13 37 2z"/>
<path d="M5644 3229 c-3 -6 -9 -40 -12 -75 -4 -58 -2 -67 18 -89 30 -32 47
-31 82 2 l28 27 23 -22 c37 -35 50 -27 27 15 -11 22 -20 57 -20 83 0 86 -33
94 -44 11 -10 -74 -63 -130 -80 -84 -4 9 -2 40 4 70 11 51 8 73 -10 73 -5 0
-12 -5 -16 -11z"/>
<path d="M5262 3217 c-6 -6 -13 -24 -17 -39 -4 -15 -13 -32 -21 -39 -20 -16
-18 -25 12 -65 21 -27 34 -34 60 -34 18 0 36 5 39 10 4 6 16 10 28 8 17 -2 26
5 36 29 8 18 23 35 33 39 22 7 19 28 -5 32 -17 3 -55 -29 -74 -62 -12 -22 -78
-28 -78 -7 0 14 13 24 50 37 17 6 16 8 -12 16 -36 9 -41 23 -18 54 21 31 -9
50 -33 21z"/>
<path d="M5859 3179 c-28 -28 -22 -76 12 -101 23 -18 30 -18 70 -7 24 7 51 11
60 10 10 -1 25 13 37 34 17 28 28 35 52 35 34 0 39 14 11 30 -36 19 -59 10
-99 -35 -23 -27 -48 -45 -61 -45 -25 0 -27 12 -6 30 8 7 15 20 15 29 0 42 -56
55 -91 20z"/>
<path d="M5550 3170 c-8 -6 -25 -10 -36 -10 -29 0 -68 -74 -53 -102 5 -10 19
-18 31 -18 26 0 98 71 98 98 0 26 -22 43 -40 32z m-10 -50 c-6 -11 -20 -25
-31 -31 -17 -9 -20 -8 -14 3 24 41 67 68 45 28z"/>
<path d="M8374 3254 c-4 -11 -15 -39 -25 -62 -17 -41 -20 -43 -49 -37 -49 11
-86 -35 -40 -50 29 -9 25 -35 -5 -35 -27 0 -34 -17 -10 -26 47 -19 92 31 60
66 -10 11 -12 20 -6 24 5 3 19 -7 31 -24 40 -56 92 -63 110 -14 11 29 30 32
30 5 0 -26 26 -34 67 -20 27 9 33 16 33 39 0 18 -7 33 -17 39 -18 9 -106 6
-122 -3 -4 -3 -16 1 -27 8 -16 12 -17 18 -7 49 9 29 8 39 -3 48 -11 9 -15 7
-20 -7z m36 -118 c0 -16 -14 -36 -26 -36 -14 0 -19 22 -7 33 7 8 33 10 33 3z"/>
<path d="M8679 3204 c-27 -62 -28 -69 -14 -90 16 -24 60 -42 73 -29 4 3 -1 11
-11 16 -21 12 -22 29 -2 29 22 0 18 17 -6 30 -20 11 -20 11 4 55 14 24 22 46
19 49 -17 17 -36 -1 -63 -60z"/>
<path d="M8920 3241 c0 -6 10 -16 23 -22 12 -6 24 -13 26 -15 2 -2 -13 -22
-33 -44 -37 -41 -41 -72 -7 -48 45 32 91 79 91 92 0 18 -22 31 -67 41 -21 4
-33 3 -33 -4z"/>
<path d="M8012 3169 c-18 -34 -32 -70 -32 -80 0 -23 23 -25 40 -4 7 8 20 15
30 15 10 0 20 -7 24 -15 3 -8 13 -15 22 -15 10 0 32 -5 50 -12 26 -9 36 -9 48
1 30 25 18 87 -20 101 -12 5 -24 19 -26 32 -2 13 -10 23 -18 23 -12 0 -14 -12
-12 -64 5 -81 -11 -74 -28 14 -16 86 -35 87 -78 4z"/>
<path d="M8814 3219 c-6 -10 7 -24 31 -32 5 -2 -3 -18 -18 -36 -26 -31 -37
-66 -18 -59 20 7 101 90 101 103 0 8 -17 19 -37 24 -47 14 -50 13 -59 0z"/>
<path d="M7782 3181 c-18 -22 -32 -44 -32 -50 0 -6 18 -20 40 -31 70 -36 99
-19 34 20 l-37 21 32 33 c30 31 32 46 6 46 -6 0 -26 -18 -43 -39z"/>
<path d="M7893 3198 c-11 -13 -26 -33 -32 -45 -10 -19 -8 -24 11 -37 57 -36
94 -25 46 14 -21 17 -21 18 -5 43 31 47 16 65 -20 25z"/>
<path d="M8593 3145 c-13 -28 -14 -37 -3 -50 13 -16 50 -21 50 -7 0 4 -6 14
-12 20 -10 10 -10 17 0 33 13 20 9 39 -9 39 -5 0 -17 -16 -26 -35z"/>
<path d="M8436 2947 c-8 -12 -17 -39 -20 -59 -9 -48 -76 -105 -76 -64 0 8 12
23 27 34 26 19 25 42 -2 42 -17 0 -65 -61 -65 -82 0 -27 27 -41 62 -33 18 4
50 7 70 7 35 0 36 1 25 25 -8 19 -7 30 6 53 34 57 8 132 -27 77z"/>
<path d="M7827 2943 c-43 -156 -27 -201 59 -173 45 15 39 36 -9 32 -33 -3 -37
-1 -37 21 0 13 6 44 13 68 8 24 12 50 9 57 -6 18 -30 15 -35 -5z"/>
<path d="M8535 2931 c-8 -7 -6 -109 3 -114 4 -3 33 -2 65 0 51 5 57 8 57 28 0
37 -45 82 -85 87 -20 2 -38 2 -40 -1z m74 -55 c8 -10 9 -16 1 -21 -13 -8 -30
3 -30 21 0 18 14 18 29 0z"/>
<path d="M8684 2886 c-7 -31 14 -98 29 -93 7 2 12 27 13 60 0 48 -2 57 -18 57
-10 0 -20 -10 -24 -24z"/>
<path d="M8250 2876 c-10 -27 0 -78 17 -83 16 -6 22 95 5 102 -7 2 -17 -6 -22
-19z"/>
<path d="M8762 2888 c-19 -19 -14 -46 11 -54 l22 -7 -23 -10 c-31 -14 -22 -32
15 -31 25 1 32 -4 49 -40 21 -46 47 -54 52 -16 6 36 39 54 101 55 39 1 58 6
65 18 9 15 14 13 43 -15 32 -31 35 -32 66 -19 35 14 37 14 86 5 31 -6 34 -5
28 15 -3 11 -1 24 4 27 16 10 9 53 -10 64 -21 11 -47 5 -72 -17 -14 -12 -17
-11 -22 7 -5 19 -9 20 -27 10 -30 -16 -37 -40 -15 -56 20 -15 14 -30 -8 -21
-8 3 -17 19 -20 36 -8 39 -31 49 -57 26 -17 -15 -24 -16 -43 -7 -13 7 -58 11
-111 9 -79 -3 -90 -1 -94 15 -5 21 -23 23 -40 6z m138 -62 c0 -8 -4 -18 -10
-21 -5 -3 -10 3 -10 14 0 12 5 21 10 21 6 0 10 -6 10 -14z"/>
<path d="M9340 2861 c-34 -32 -38 -56 -11 -70 21 -12 31 -5 31 19 0 9 11 27
25 40 14 13 25 27 25 32 0 18 -42 6 -70 -21z"/>
<path d="M8122 2868 c-18 -18 -15 -85 3 -92 9 -3 35 -3 59 0 42 6 44 8 44 39
0 18 -4 38 -8 45 -11 18 -40 5 -40 -18 0 -21 -23 -46 -33 -36 -3 4 -4 19 -1
34 7 31 -7 45 -24 28z"/>
<path d="M5651 2651 c-14 -10 -31 -16 -39 -13 -13 5 -14 -9 -9 -98 4 -67 11
-106 19 -112 42 -27 144 33 166 97 17 51 7 89 -30 120 -35 30 -74 32 -107 6z
m94 -41 c16 -18 17 -25 6 -60 -12 -40 -63 -90 -93 -90 -13 0 -14 9 -4 73 7 39
15 78 19 85 12 19 52 14 72 -8z"/>
<path d="M4888 2580 l-33 -30 24 -20 c13 -11 32 -20 42 -20 32 0 21 -30 -16
-46 -27 -11 -40 -12 -56 -3 -24 12 -34 6 -26 -16 8 -19 67 -20 118 -1 19 7 52
10 73 8 21 -2 48 1 60 7 16 9 32 9 66 0 45 -11 59 -12 123 -6 17 2 47 -3 66
-11 26 -10 59 -12 133 -7 54 4 98 11 98 16 0 5 -5 9 -11 9 -6 0 -8 11 -4 29 8
37 -15 61 -61 61 -44 0 -78 -32 -70 -66 5 -20 3 -24 -18 -24 -62 0 -73 27 -26
60 17 12 28 26 25 31 -12 18 -38 8 -71 -27 l-34 -35 0 30 c0 34 -26 44 -37 14
-9 -26 -34 -53 -49 -53 -7 0 -14 14 -16 33 -4 44 -31 43 -38 -2 -4 -27 -7 -31
-16 -20 -6 8 -14 22 -17 32 -8 21 -53 40 -77 32 -10 -3 -25 -14 -34 -24 -16
-18 -19 -18 -57 -2 -47 19 -50 35 -8 50 17 6 28 15 24 21 -12 19 -44 10 -77
-20z m182 -68 c0 -15 -24 -32 -44 -32 -18 0 -19 1 -1 20 18 20 45 27 45 12z
m438 -9 c-4 -22 -58 -31 -58 -10 0 20 10 27 37 27 18 0 24 -5 21 -17z"/>
<path d="M6730 2565 c-14 -8 -37 -20 -52 -27 -28 -12 -34 -31 -22 -62 10 -25
32 -19 49 14 21 41 49 53 101 45 51 -7 57 3 15 28 -35 21 -58 21 -91 2z"/>
<path d="M5824 2559 c-8 -14 18 -31 30 -19 9 9 0 30 -14 30 -5 0 -12 -5 -16
-11z"/>
<path d="M6400 2546 c-27 -29 -21 -53 15 -62 32 -8 27 -28 -8 -32 -23 -3 -30
3 -49 44 -29 60 -50 74 -76 51 -24 -22 -43 -21 -81 0 -29 17 -31 17 -61 -6
-30 -21 -33 -22 -50 -6 -26 24 -81 16 -96 -13 -16 -33 -20 -35 -45 -22 -20 11
-20 13 -5 22 20 11 12 28 -14 28 -24 0 -51 -27 -44 -44 3 -7 16 -18 30 -24 36
-17 29 -32 -13 -32 -36 -1 -37 -2 -19 -15 23 -17 59 -19 86 -5 17 9 20 6 26
-17 16 -74 26 -93 50 -93 10 0 14 15 14 55 0 48 4 59 27 79 27 24 28 24 52 5
25 -20 76 -26 85 -10 4 5 1 11 -6 13 -7 3 -8 10 -3 17 6 11 10 10 17 -3 13
-23 33 -20 52 9 l16 25 46 -45 c38 -38 51 -45 84 -45 21 0 42 5 45 10 4 7 24
8 51 4 49 -7 98 2 89 16 -3 6 -21 10 -39 10 -18 0 -41 7 -52 16 -19 15 -19 15
1 5 28 -13 85 12 85 37 0 11 -7 25 -15 32 -18 15 -74 -2 -100 -30 -10 -11 -24
-20 -31 -20 -21 0 -28 22 -10 32 9 5 16 16 16 23 0 24 -44 17 -70 -9z m-335
-46 c0 -7 -6 -15 -12 -17 -8 -3 -13 4 -13 17 0 13 5 20 13 18 6 -3 12 -11 12
-18z m120 10 c-3 -5 -13 -10 -21 -10 -8 0 -12 5 -9 10 3 6 13 10 21 10 8 0 12
-4 9 -10z"/>
<path d="M5804 2517 c-6 -18 21 -87 35 -87 19 0 21 18 6 53 -17 41 -33 54 -41
34z"/>
<path d="M5330 2318 c-11 -18 -25 -47 -31 -65 -12 -38 -43 -51 -68 -29 -24 22
-40 20 -68 -6 -21 -20 -24 -20 -41 -5 -29 27 -87 22 -111 -9 -11 -14 -21 -30
-23 -35 -2 -6 -25 -13 -51 -16 -43 -5 -47 -4 -47 16 0 32 16 60 62 107 40 42
39 62 -2 49 -23 -7 -100 -120 -100 -147 0 -23 43 -68 65 -68 9 0 31 6 50 14
26 11 41 12 63 4 25 -10 35 -8 65 10 21 12 39 17 42 11 11 -17 32 -9 44 18
l12 27 25 -32 c14 -18 33 -32 42 -32 9 0 26 -7 36 -15 28 -21 63 -19 83 5 10
11 25 20 34 20 9 0 21 11 27 24 6 14 23 32 37 42 14 9 25 20 25 24 0 4 -34 8
-76 8 -42 1 -78 3 -81 6 -3 3 4 24 15 47 32 63 8 85 -28 27z m65 -140 c-9 -41
-7 -40 -47 -41 -29 -2 -33 1 -33 23 0 25 33 50 68 50 16 0 17 -5 12 -32z
m-305 14 c0 -14 -24 -32 -42 -32 -16 0 -17 3 -8 20 10 19 50 29 50 12z"/>
<path d="M5796 2325 c-3 -9 -6 -28 -6 -43 0 -35 -35 -104 -60 -120 -34 -21
-43 -6 -35 64 5 54 4 64 -9 64 -20 0 -23 -6 -31 -77 -6 -54 -4 -64 14 -82 28
-28 53 -26 91 5 l31 27 20 -22 c24 -25 53 -33 104 -29 37 3 64 28 30 28 -16 0
-16 2 -1 25 43 65 -14 114 -77 65 -14 -11 -28 -20 -31 -20 -4 0 -5 28 -4 62 2
51 0 63 -13 66 -9 1 -19 -4 -23 -13z m134 -112 c0 -10 -42 -53 -52 -53 -17 0
-7 29 14 44 24 17 38 20 38 9z"/>
<path d="M6035 2209 c-36 -32 -44 -56 -24 -76 15 -15 39 -5 39 16 0 26 42 61
73 61 30 0 36 14 11 24 -33 13 -65 5 -99 -25z"/>
<path d="M5560 2222 c-30 -5 -70 -39 -70 -62 0 -40 40 -50 96 -24 78 37 59 99
-26 86z m24 -43 c-9 -10 -27 -19 -38 -19 -19 1 -18 3 8 25 34 27 56 23 30 -6z"/>
<path d="M1591 1904 c-26 -19 -47 -58 -56 -106 -4 -20 -13 -39 -21 -42 -15 -6
-20 -36 -5 -36 5 0 14 -13 21 -30 16 -39 30 -38 30 1 0 22 5 32 20 36 23 6 27
33 5 33 -32 0 -4 98 34 122 12 7 21 16 21 19 0 15 -29 16 -49 3z"/>
<path d="M1170 1846 c-10 -24 -26 -48 -35 -53 -14 -8 -13 -14 11 -51 28 -43
49 -51 84 -32 13 7 21 7 25 0 8 -12 62 -13 69 -1 3 5 -9 12 -27 15 l-32 7 35
12 c27 9 35 17 35 36 0 13 -8 29 -17 35 -21 13 -66 -17 -86 -57 -8 -16 -21
-27 -33 -27 -26 0 -24 22 3 39 19 12 20 14 5 23 -15 8 -16 12 -2 45 8 19 12
39 9 44 -11 19 -25 7 -44 -35z"/>
<path d="M631 1823 c-28 -31 -50 -62 -47 -70 8 -19 71 -47 91 -39 20 7 10 26
-14 26 -9 0 -22 5 -29 12 -9 9 -1 23 34 60 40 43 49 68 25 68 -4 0 -31 -26
-60 -57z"/>
<path d="M713 1835 c-34 -52 -30 -73 19 -95 23 -10 46 -16 52 -13 9 6 -23 38
-47 46 -9 3 -6 15 10 44 13 22 20 43 16 47 -13 13 -29 5 -50 -29z"/>
<path d="M2162 1860 c2 -8 17 -18 34 -23 40 -13 40 -12 10 -48 -18 -21 -24
-35 -17 -42 12 -12 61 22 86 59 23 35 7 51 -64 60 -42 5 -53 4 -49 -6z"/>
<path d="M895 1853 c-30 -7 -41 -21 -27 -35 18 -18 15 -33 -15 -68 -26 -32
-26 -33 -7 -47 24 -17 125 -14 132 5 2 8 -9 12 -35 12 -22 0 -42 2 -45 5 -2 3
5 25 16 50 18 39 26 46 59 52 56 9 49 33 -10 32 -27 -1 -57 -3 -68 -6z"/>
<path d="M2070 1839 c0 -7 7 -17 16 -24 16 -11 16 -14 -2 -43 -15 -26 -16 -34
-5 -44 10 -11 19 -6 47 24 19 21 34 42 34 48 0 12 -59 50 -77 50 -7 0 -13 -5
-13 -11z"/>
<path d="M1912 1787 c-12 -13 -22 -35 -22 -50 0 -20 -6 -28 -25 -33 -55 -14
-65 15 -22 63 11 13 18 26 14 29 -12 13 -45 -8 -62 -39 -33 -61 17 -102 93
-78 21 6 57 12 81 14 52 2 71 27 21 27 l-31 0 17 29 c9 16 14 36 11 45 -9 23
-50 20 -75 -7z"/>
<path d="M1035 1790 c-3 -5 -12 -7 -20 -3 -11 4 -15 -3 -15 -24 0 -40 9 -46
37 -28 19 13 23 13 23 2 0 -16 34 -50 42 -41 7 6 -12 74 -25 92 -11 14 -33 16
-42 2z"/>
<path d="M1392 1777 c-19 -20 -21 -28 -12 -51 12 -34 34 -29 38 8 3 21 10 28
33 33 37 7 33 27 -7 31 -21 2 -36 -4 -52 -21z"/>
<path d="M1641 1764 c-12 -15 -21 -37 -19 -48 3 -18 9 -21 43 -19 22 2 51 3
64 4 20 1 22 4 17 32 -8 38 -13 43 -52 51 -27 6 -35 3 -53 -20z m59 -12 c0
-13 -23 -32 -39 -32 -11 0 -10 4 4 20 19 21 35 26 35 12z"/>
<path d="M607 1534 c-4 -4 -7 -36 -7 -71 0 -50 4 -67 20 -83 25 -25 41 -25 71
-1 18 14 27 16 41 8 9 -6 20 -9 23 -6 8 9 -16 112 -31 128 -17 19 -34 5 -34
-27 0 -30 -25 -72 -41 -72 -7 0 -10 24 -7 62 2 51 0 63 -12 66 -9 1 -19 0 -23
-4z"/>
<path d="M775 1520 c-4 -6 2 -20 14 -31 21 -20 21 -58 -1 -85 -4 -6 -5 -19 -2
-29 5 -13 14 -15 37 -11 16 3 47 6 68 6 55 0 54 27 -1 36 -37 6 -40 9 -40 40
0 29 3 34 24 34 28 0 43 17 29 31 -16 16 -119 23 -128 9z"/>
<path d="M981 1517 c-6 -8 -12 -46 -14 -83 -2 -63 0 -69 18 -69 12 0 21 8 23
20 7 45 12 48 33 21 21 -27 71 -36 84 -16 10 16 23 12 30 -10 3 -11 13 -20 22
-20 13 0 15 11 11 70 -3 38 -11 77 -18 85 -18 22 -40 18 -40 -7 0 -25 -35 -88
-48 -88 -4 0 -19 24 -33 53 -25 54 -47 68 -68 44z"/>
<path d="M1241 1454 c-25 -32 -27 -57 -4 -79 11 -12 24 -15 42 -10 14 4 41 7
59 7 17 0 32 0 32 2 0 15 -46 83 -63 93 -32 18 -43 16 -66 -13z m40 -47 c-16
-16 -26 0 -10 19 9 11 15 12 17 4 2 -6 -1 -17 -7 -23z"/>
<path d="M1950 1460 c-11 -11 -20 -29 -20 -40 0 -11 -4 -20 -10 -20 -15 0 -12
-27 6 -44 20 -21 31 -14 39 27 10 42 22 57 51 57 32 0 31 18 -2 30 -35 14 -41
13 -64 -10z"/>
<path d="M1405 1454 c-21 -22 -16 -78 8 -82 11 -2 17 3 17 17 0 11 4 22 9 25
11 7 21 -17 21 -50 0 -15 6 -24 15 -24 8 0 15 5 15 10 0 7 7 7 21 -1 16 -8 28
-8 45 0 13 6 30 8 38 5 11 -4 14 5 12 42 -1 44 -3 48 -31 56 -23 6 -34 3 -51
-13 l-22 -20 -25 25 c-30 30 -49 33 -72 10z"/>
<path d="M1797 1432 c-42 -46 -6 -106 59 -100 39 3 61 28 25 28 -24 0 -25 3
-9 30 27 43 -40 81 -75 42z"/>
<path d="M2213 1168 c-28 -35 -56 -108 -57 -146 -1 -35 4 -48 23 -63 26 -21
52 -22 58 -2 2 6 -6 13 -19 15 -20 3 -23 8 -22 48 0 32 8 57 28 84 27 40 31
66 10 73 -6 2 -16 -2 -21 -9z"/>
<path d="M1841 1138 c-25 -67 -56 -121 -78 -135 -13 -9 -26 -14 -28 -11 -8 8
26 48 41 48 9 0 14 6 12 13 -6 16 -47 22 -61 8 -8 -8 -16 -6 -28 5 -35 32 -99
-4 -99 -56 0 -43 27 -46 44 -5 21 48 56 49 56 2 0 -58 44 -75 92 -37 l25 19
13 -24 c15 -28 46 -35 36 -9 -16 43 -16 65 4 123 12 34 19 68 16 76 -9 26 -33
16 -45 -17z"/>
<path d="M2280 1161 c0 -5 7 -25 15 -44 23 -56 19 -118 -10 -161 -31 -45 -31
-48 -3 -44 60 8 87 123 48 204 -19 38 -50 66 -50 45z"/>
<path d="M676 1137 c-8 -7 -29 -29 -45 -51 -72 -91 -11 -170 91 -118 25 13 41
16 53 10 23 -14 62 -2 92 28 24 24 24 26 7 45 -29 32 -124 20 -124 -16 0 -18
-46 -43 -86 -47 -48 -5 -44 31 10 88 25 26 46 51 46 55 0 14 -28 17 -44 6z
m144 -112 c-7 -8 -19 -15 -27 -15 -13 0 -13 3 -3 15 7 8 19 15 27 15 13 0 13
-3 3 -15z"/>
<path d="M1291 1095 c-26 -63 -23 -94 15 -132 27 -27 57 -27 62 0 2 11 -3 17
-16 17 -23 0 -46 25 -37 40 3 5 12 10 19 10 8 0 19 6 25 14 10 11 8 16 -9 21
-17 5 -20 12 -15 28 11 39 10 51 -6 54 -10 3 -22 -14 -38 -52z"/>
<path d="M3045 1138 c-2 -7 -9 -33 -15 -57 -12 -47 -80 -127 -87 -104 -6 18
15 53 32 53 20 0 19 19 -1 27 -17 6 -60 -30 -69 -58 -16 -49 47 -79 88 -42 18
17 19 17 32 0 17 -24 25 -21 25 8 0 14 7 55 16 90 16 64 14 95 -6 95 -6 0 -13
-6 -15 -12z"/>
<path d="M1006 1116 c-8 -32 3 -116 19 -142 11 -17 23 -21 62 -20 40 1 50 5
58 24 12 27 21 28 35 2 6 -11 21 -20 35 -20 31 0 43 20 16 27 -24 6 -29 33 -6
33 19 0 19 14 1 29 -11 10 -20 10 -36 1 -19 -10 -24 -8 -37 9 -18 27 -43 27
-77 0 l-26 -20 0 31 c0 34 -15 70 -29 70 -5 0 -12 -11 -15 -24z"/>
<path d="M1457 1110 c-45 -53 -48 -128 -6 -151 45 -24 139 41 139 96 0 22 -50
75 -70 75 -5 0 -15 2 -23 6 -8 3 -25 -8 -40 -26z m93 -41 c0 -22 -22 -49 -51
-65 -44 -22 -58 -6 -36 41 14 30 21 35 52 35 19 0 35 -5 35 -11z"/>
<path d="M907 1124 c-11 -11 -8 -123 3 -144 14 -25 44 -41 64 -34 23 9 20 22
-6 26 -21 3 -23 8 -23 78 -1 58 -4 76 -16 78 -8 1 -18 0 -22 -4z"/>
<path d="M2480 1116 c0 -7 7 -19 15 -26 12 -10 16 -9 21 5 4 10 1 21 -7 26
-20 12 -29 11 -29 -5z"/>
<path d="M2625 1092 c-36 -55 -42 -95 -16 -121 25 -25 51 -27 91 -6 39 20 70
62 70 96 0 36 -41 69 -86 69 -28 0 -38 -7 -59 -38z m108 -6 c14 -35 -80 -123
-105 -98 -15 15 -3 53 27 85 27 29 69 36 78 13z"/>
<path d="M1909 1080 c-9 -5 -22 -23 -29 -40 -22 -52 20 -101 78 -92 22 3 32
32 10 32 -6 0 -4 7 5 18 20 22 22 63 5 80 -14 14 -47 15 -69 2z m38 -47 c-9
-9 -19 -14 -23 -11 -10 10 6 28 24 28 15 0 15 -1 -1 -17z"/>
<path d="M2017 1035 c-25 -32 -27 -38 -15 -62 18 -37 38 -41 38 -8 0 26 39 75
61 75 8 0 8 4 -1 15 -21 25 -53 17 -83 -20z"/>
<path d="M3101 1044 c-40 -33 -43 -79 -6 -96 40 -18 72 2 80 52 12 70 -21 89
-74 44z"/>
<path d="M3232 1047 c-22 -23 -27 -51 -16 -81 11 -27 33 -18 36 15 3 32 8 37
62 59 24 9 27 13 15 21 -27 17 -75 10 -97 -14z"/>
<path d="M2810 1038 c-22 -24 -26 -68 -8 -86 19 -19 25 -14 32 24 4 19 12 37
19 39 54 15 54 15 33 31 -28 20 -52 17 -76 -8z"/>
<path d="M2470 995 c0 -18 24 -30 40 -20 8 5 8 11 -1 21 -15 19 -39 18 -39 -1z"/>
<path d="M4692 813 c47 -50 58 -73 58 -123 0 -50 -20 -93 -68 -142 -37 -39
-31 -48 16 -24 66 34 99 111 82 192 -15 70 -61 134 -97 134 l-27 0 36 -37z"/>
<path d="M2683 798 c-33 -42 -64 -196 -45 -224 11 -17 51 -36 62 -29 17 11 11
23 -12 27 -34 5 -35 56 -3 146 16 45 23 78 17 84 -5 5 -13 4 -19 -4z"/>
<path d="M3575 754 c-14 -31 -25 -65 -25 -75 0 -57 53 -106 85 -79 18 15 11
25 -18 25 -16 0 -23 7 -25 25 -2 20 3 28 28 37 36 14 40 33 6 33 -25 0 -25 1
-10 35 18 44 18 55 -1 55 -9 0 -26 -24 -40 -56z"/>
<path d="M631 771 c-41 -44 -67 -115 -55 -149 8 -23 16 -27 51 -30 60 -4 126
33 94 52 -5 3 -28 -1 -51 -9 -57 -20 -60 -19 -60 13 0 31 28 78 62 104 22 16
22 18 6 34 -16 16 -19 15 -47 -15z"/>
<path d="M1334 758 c-10 -24 -24 -47 -32 -51 -10 -7 -8 -16 10 -45 12 -20 29
-42 38 -49 19 -16 53 -16 68 -1 19 19 14 31 -10 25 -23 -6 -58 8 -58 23 0 6 9
10 20 10 24 0 27 25 4 38 -16 9 -16 12 -1 42 9 18 14 36 11 41 -12 20 -32 7
-50 -33z"/>
<path d="M1020 765 c-15 -39 -12 -138 4 -161 8 -10 16 -17 19 -14 3 3 7 44 9
93 3 64 1 90 -9 98 -10 9 -15 5 -23 -16z"/>
<path d="M920 754 c-29 -76 8 -185 58 -166 19 7 14 32 -7 32 -27 0 -33 26 -21
87 6 29 9 57 5 63 -11 17 -25 11 -35 -16z"/>
<path d="M1492 767 c-22 -10 -23 -14 -16 -86 6 -75 18 -106 35 -95 5 3 9 14 9
25 0 15 5 19 19 14 10 -3 30 -1 45 4 24 10 26 8 26 -14 0 -25 23 -55 43 -55 7
0 25 7 40 15 15 8 35 11 43 8 13 -5 14 1 8 33 -9 51 -12 56 -35 49 -11 -4 -19
-2 -19 6 0 7 -10 9 -30 6 -22 -5 -28 -3 -24 7 7 19 -22 73 -45 86 -25 13 -69
12 -99 -3z m99 -43 c11 -14 9 -20 -15 -41 -36 -31 -60 -27 -64 11 -5 44 50 65
79 30z m92 -106 c-13 -12 -25 -19 -29 -15 -10 10 16 37 34 37 13 0 12 -4 -5
-22z"/>
<path d="M2427 733 c-12 -27 -24 -49 -27 -51 -37 -19 -38 -16 31 -99 14 -18
56 -16 63 3 11 28 6 34 -23 28 -39 -8 -49 19 -13 36 25 11 26 13 9 25 -16 12
-17 16 -4 47 14 34 13 58 -4 58 -5 0 -19 -21 -32 -47z"/>
<path d="M3850 755 c-5 -14 -15 -24 -22 -23 -15 3 -15 3 -4 -75 12 -81 42 -95
122 -56 35 16 47 18 64 9 12 -6 42 -11 68 -9 26 1 55 -2 64 -6 23 -9 50 -3 56
14 3 9 0 12 -10 9 -8 -4 -21 -2 -29 3 -11 8 -10 13 10 29 14 13 21 26 17 36
-6 15 -9 15 -29 2 -12 -9 -27 -26 -34 -39 -17 -33 -37 -30 -38 6 0 39 -44 58
-74 31 -18 -17 -20 -16 -41 22 -22 39 -65 72 -94 72 -9 0 -21 -11 -26 -25z
m77 -39 c24 -21 26 -27 18 -52 -6 -17 -23 -33 -42 -41 l-33 -13 0 42 c0 51 9
88 21 88 4 0 20 -11 36 -24z"/>
<path d="M4604 723 c-10 -52 -35 -69 -58 -37 -14 18 -36 12 -36 -11 0 -8 -4
-16 -9 -19 -5 -4 -7 2 -4 13 6 24 -13 36 -33 20 -19 -16 -15 -68 7 -82 11 -7
24 -4 44 9 45 29 88 26 108 -8 9 -15 21 -28 27 -28 13 0 13 27 -1 35 -6 4 -10
34 -9 68 2 85 2 87 -13 87 -8 0 -17 -19 -23 -47z"/>
<path d="M1091 685 c-17 -20 -31 -41 -31 -48 0 -24 31 -57 53 -57 32 0 43 10
61 54 15 35 15 41 1 63 -22 32 -48 29 -84 -12z"/>
<path d="M3712 708 c6 -18 28 -21 28 -4 0 9 -7 16 -16 16 -9 0 -14 -5 -12 -12z"/>
<path d="M4250 705 c0 -9 6 -15 13 -12 14 4 12 20 -3 25 -5 2 -10 -4 -10 -13z"/>
<path d="M795 702 c-40 -5 -55 -19 -55 -52 0 -51 53 -76 98 -44 66 46 39 106
-43 96z m20 -52 c-16 -17 -45 -28 -45 -16 0 20 17 36 38 36 24 0 25 0 7 -20z"/>
<path d="M2776 683 c-31 -33 -34 -82 -8 -106 24 -22 34 -21 66 4 19 15 34 19
56 14 34 -8 39 4 10 23 -13 8 -20 23 -20 41 0 34 -3 36 -47 45 -26 6 -35 3
-57 -21z m64 -35 c0 -11 -38 -48 -50 -48 -17 0 -11 26 11 54 17 21 24 25 30
14 5 -7 9 -16 9 -20z"/>
<path d="M1216 678 c-23 -33 -20 -65 9 -84 21 -14 31 -15 50 -6 36 17 32 40
-5 34 -32 -5 -41 13 -19 35 13 13 5 43 -10 43 -5 0 -17 -10 -25 -22z"/>
<path d="M2126 679 c-14 -11 -26 -29 -26 -40 0 -32 -30 -21 -46 16 -16 39 -29
43 -56 18 -17 -15 -19 -15 -32 3 -14 19 -15 19 -35 -3 -25 -26 -27 -75 -5 -93
13 -11 16 -10 21 8 4 18 8 19 24 9 17 -10 23 -8 38 11 l17 24 18 -27 c15 -22
23 -26 47 -21 15 3 31 1 34 -4 9 -14 61 -12 73 3 21 26 25 77 6 98 -22 25 -45
24 -78 -2z m49 -29 c-3 -5 -14 -10 -23 -10 -15 0 -15 2 -2 10 20 13 33 13 25
0z"/>
<path d="M2279 676 c-12 -14 -26 -23 -31 -20 -14 9 -9 -43 6 -55 11 -9 18 -6
35 16 14 19 20 23 21 12 0 -20 31 -49 53 -49 21 0 22 9 1 25 -9 6 -19 29 -23
51 -8 48 -31 55 -62 20z"/>
<path d="M3025 676 l-18 -27 -22 21 -23 21 -16 -22 c-9 -13 -16 -34 -16 -47 0
-28 29 -41 42 -18 6 11 17 14 32 10 14 -3 27 0 31 7 6 8 13 5 26 -12 10 -13
20 -21 23 -18 8 8 -14 82 -29 98 -11 11 -16 9 -30 -13z"/>
<path d="M3149 690 c-36 -21 -34 -91 2 -110 25 -14 54 2 74 39 13 27 13 31 -6
55 -21 27 -43 32 -70 16z m51 -32 c-1 -18 -25 -48 -39 -48 -15 0 -14 11 5 38
17 24 34 29 34 10z"/>
<path d="M3455 680 c-9 -10 -22 -18 -29 -17 -17 3 -19 -48 -2 -62 12 -10 18
-8 32 14 l17 26 24 -25 c24 -26 43 -34 43 -17 0 6 -4 13 -10 16 -5 3 -14 24
-20 45 -12 44 -28 50 -55 20z"/>
<path d="M4296 681 c-12 -13 -15 -27 -10 -45 8 -34 24 -43 36 -22 8 14 12 15
25 5 11 -10 19 -10 33 -2 13 9 20 9 29 0 17 -17 21 -4 10 36 -12 45 -28 56
-46 31 -13 -18 -15 -18 -24 -1 -13 22 -32 22 -53 -2z"/>
<path d="M1836 679 c-3 -8 -6 -23 -8 -34 -5 -28 -38 -33 -38 -6 0 12 -6 21
-15 21 -18 0 -21 -50 -3 -68 7 -7 24 -12 39 -12 23 0 28 -6 38 -44 18 -71 15
-89 -11 -81 -13 4 -43 18 -67 31 -24 13 -46 23 -48 20 -7 -7 74 -66 113 -82
32 -14 39 -14 51 -1 13 13 13 23 -1 85 -9 39 -16 91 -16 115 0 45 -25 85 -34
56z"/>
<path d="M3250 646 c0 -26 7 -40 27 -55 24 -20 28 -20 49 -6 13 8 35 15 49 15
32 0 32 5 -4 41 -35 35 -48 37 -53 7 -5 -32 -26 -33 -30 -1 -2 17 -10 29 -20
31 -14 3 -18 -4 -18 -32z"/>
<path d="M4220 666 c0 -20 25 -66 36 -66 8 0 14 2 14 5 0 14 -32 65 -40 65 -6
0 -10 -2 -10 -4z"/>
<path d="M3731 631 c2 -6 7 -11 12 -11 11 0 8 15 -4 19 -6 2 -10 -2 -8 -8z"/>
<path d="M925 438 c-23 -28 -27 -39 -23 -80 4 -36 2 -48 -8 -48 -21 0 -17 -28
5 -35 11 -3 23 -15 26 -26 6 -17 10 -20 33 -19 4 1 6 11 4 24 -2 16 4 26 23
34 36 16 31 32 -10 32 -33 0 -35 2 -35 34 0 39 34 88 55 79 10 -3 15 2 15 16
0 35 -52 28 -85 -11z"/>
<path d="M2503 448 c-6 -7 -18 -29 -28 -48 -9 -19 -27 -43 -39 -52 -17 -14
-19 -19 -8 -29 21 -22 14 -41 -15 -37 -19 2 -29 11 -37 35 -6 17 -14 35 -18
38 -7 7 -73 -37 -95 -64 -11 -12 -13 -10 -13 16 0 32 -26 63 -53 63 -31 0 -60
-39 -53 -71 10 -49 -36 -32 -70 27 -9 15 -14 17 -26 7 -12 -11 -17 -9 -26 12
-15 32 -23 31 -51 -5 -14 -20 -21 -42 -19 -62 4 -37 23 -48 33 -18 7 21 7 21
27 3 19 -17 20 -17 33 1 14 18 15 18 45 -8 17 -14 41 -26 53 -25 43 1 157 35
176 54 20 18 21 17 42 -9 21 -26 62 -35 74 -16 4 7 16 1 30 -15 26 -27 54 -32
73 -13 15 15 16 48 2 48 -5 0 -10 -5 -10 -11 0 -21 -45 -4 -48 18 -3 17 3 24
22 29 28 7 36 34 11 34 -20 0 -19 16 5 55 17 27 18 34 6 44 -10 8 -16 8 -23
-1z m-283 -127 c0 -12 -29 -35 -36 -28 -11 10 5 37 21 37 8 0 15 -4 15 -9z"/>
<path d="M2690 438 c-29 -30 -50 -79 -50 -116 0 -36 41 -82 72 -82 22 0 21 2
-9 26 -48 37 -44 92 10 152 30 33 8 53 -23 20z"/>
<path d="M625 436 c-27 -19 -34 -151 -11 -181 15 -19 17 -19 29 -3 12 15 14
15 26 -3 8 -14 20 -19 38 -17 31 3 44 28 16 28 -39 0 -57 46 -29 69 24 20 30
69 12 96 -18 28 -52 32 -81 11z m55 -39 c0 -7 -7 -22 -15 -33 -14 -18 -14 -18
-15 7 0 14 3 29 7 32 11 11 23 8 23 -6z"/>
<path d="M2810 442 c0 -5 9 -17 20 -27 35 -32 26 -76 -31 -151 -49 -65 -49
-66 -17 -47 18 10 47 38 65 62 42 54 46 116 10 149 -24 22 -47 29 -47 14z"/>
<path d="M1554 400 c-23 -35 -26 -47 -21 -92 8 -64 20 -78 44 -50 10 11 28 23
40 27 18 5 25 1 34 -19 16 -34 41 -41 79 -21 23 12 35 13 51 4 27 -14 36 -4
17 18 -9 10 -19 28 -22 41 -8 24 -36 31 -36 8 0 -15 -40 -49 -48 -41 -3 2 6
13 18 23 23 19 21 42 -5 42 -7 0 -19 16 -25 35 -24 74 -86 86 -126 25z m86
-15 c11 -13 9 -20 -10 -40 -34 -36 -53 -33 -45 8 4 17 9 35 12 40 7 12 30 8
43 -8z"/>
<path d="M1397 424 c-4 -4 -7 -18 -7 -31 0 -30 -21 -72 -49 -97 -19 -17 -21
-17 -21 -2 0 9 7 19 15 22 17 7 20 30 4 39 -14 10 -59 -34 -59 -57 0 -29 19
-58 37 -58 9 0 30 12 45 27 22 21 31 24 40 15 23 -23 27 -12 25 65 -2 70 -12
95 -30 77z"/>
<path d="M767 363 c-25 -29 -31 -70 -13 -97 21 -33 49 -40 83 -22 l28 15 -29
1 c-27 0 -28 1 -14 18 25 29 29 53 13 78 -18 28 -46 31 -68 7z m35 -45 c-7 -7
-12 -8 -12 -2 0 14 12 26 19 19 2 -3 -1 -11 -7 -17z"/>
<path d="M1029 326 c-10 -20 -9 -30 5 -51 19 -28 42 -32 73 -10 16 11 28 13
46 6 18 -7 30 -5 46 6 20 14 24 13 42 -3 17 -15 19 -15 19 -1 0 26 -22 67 -37
67 -16 0 -55 -21 -66 -35 -4 -6 -11 -3 -18 8 -13 23 -31 22 -47 -3 -17 -27
-32 -25 -32 4 0 35 -18 42 -31 12z"/>
<path d="M3564 6028 c-21 -58 -43 -71 -75 -42 -19 17 -21 17 -44 -11 -13 -17
-24 -40 -25 -52 0 -17 -6 -23 -21 -23 -21 0 -21 1 -4 26 9 14 14 31 12 38 -7
18 -105 30 -123 15 -7 -6 -25 -8 -39 -5 -32 8 -65 -13 -65 -41 0 -29 -14 -29
-35 0 l-16 22 -18 -24 c-21 -28 -41 -21 -41 15 0 32 -22 27 -30 -7 -6 -26 -47
-46 -74 -36 -19 8 -21 50 -3 65 6 5 21 11 31 13 26 5 33 29 9 29 -27 0 -63
-28 -74 -57 -7 -19 -5 -32 7 -51 14 -22 21 -24 58 -18 22 4 75 9 116 10 41 2
83 4 92 5 9 0 18 11 20 23 4 31 25 33 32 3 9 -33 22 -32 35 5 12 36 47 43 38
8 -8 -28 18 -58 49 -58 13 0 39 14 59 31 35 31 36 31 50 12 15 -22 89 -48 107
-37 7 5 4 10 -10 15 -28 10 -28 35 -1 49 16 9 18 14 9 25 -9 11 -9 23 -1 46
13 38 14 59 2 59 -5 0 -17 -24 -27 -52z"/>
<path d="M3991 6001 c-15 -58 -64 -112 -84 -92 -10 10 -6 17 16 36 15 13 27
29 27 35 0 14 -7 13 -34 -6 -16 -10 -26 -12 -31 -5 -19 31 -95 -11 -95 -52 0
-25 28 -21 36 6 8 25 22 37 45 37 12 0 16 -9 15 -37 -1 -42 20 -54 59 -33 16
9 36 9 80 1 75 -14 72 -14 78 9 5 20 27 28 27 10 0 -22 30 -8 45 20 12 23 22
30 45 30 37 0 39 17 4 26 -18 5 -34 0 -54 -15 -37 -26 -38 -26 -50 4 -13 34
-35 31 -72 -7 l-30 -33 7 58 c5 45 4 57 -7 57 -9 0 -19 -20 -27 -49z m98 -57
c-14 -18 -24 -11 -15 11 3 9 11 13 16 10 8 -5 7 -11 -1 -21z"/>
<path d="M3682 6018 c-82 -104 -21 -184 71 -93 38 39 35 70 -10 94 -28 14 -48
14 -61 -1z m66 -44 c3 -23 -39 -64 -64 -64 -19 0 -18 40 2 68 20 29 58 26 62
-4z"/>
<path d="M6913 5993 c-41 -14 -55 -35 -33 -48 15 -9 12 -51 -5 -65 -23 -19 -8
-30 39 -30 57 0 79 23 36 38 -16 6 -30 18 -30 27 0 17 38 59 60 67 16 5 5 28
-13 27 -7 0 -31 -7 -54 -16z"/>
<path d="M7046 5982 c-9 -17 -23 -35 -32 -40 -15 -8 -15 -12 2 -38 26 -40 33
-44 82 -42 23 1 48 -4 54 -10 14 -14 84 -16 92 -3 3 5 -9 12 -27 15 l-32 7 28
17 c29 18 35 40 15 60 -22 22 -56 13 -85 -23 -20 -25 -36 -35 -55 -35 -30 0
-37 14 -13 24 12 4 14 14 9 43 -9 53 -20 60 -38 25z"/>
<path d="M4080 5725 c0 -31 18 -68 29 -61 4 3 5 22 2 42 -7 44 -31 59 -31 19z"/>
<path d="M7074 5627 c-8 -21 4 -87 18 -104 21 -26 29 -12 22 40 -7 58 -29 93
-40 64z"/>
<path d="M7357 5613 c-38 -4 -39 -5 -33 -37 5 -23 2 -37 -9 -46 -21 -17 -9
-31 21 -24 13 3 30 1 38 -5 28 -24 109 43 104 86 -3 23 -8 26 -43 28 -22 1
-57 0 -78 -2z"/>
<path d="M7155 5520 c-3 -6 1 -13 10 -16 19 -8 30 0 20 15 -8 14 -22 14 -30 1z"/>
<path d="M7240 5515 c0 -8 7 -15 15 -15 8 0 15 7 15 15 0 8 -7 15 -15 15 -8 0
-15 -7 -15 -15z"/>
<path d="M2064 5322 c-6 -4 -16 -17 -23 -29 -13 -25 -37 -21 -44 8 -6 22 -26
24 -52 5 -27 -20 -13 -46 26 -46 27 0 30 -2 19 -15 -7 -8 -19 -15 -27 -15 -22
0 -10 -25 14 -28 20 -3 47 16 55 38 2 7 17 5 42 -5 45 -19 83 -12 54 9 -11 8
-15 20 -11 36 4 16 0 27 -12 36 -21 16 -26 17 -41 6z"/>
<path d="M2193 5320 c-26 -10 -32 -57 -11 -78 20 -20 31 -14 24 13 -7 26 15
45 53 45 25 0 28 15 5 24 -21 8 -44 7 -71 -4z"/>
<path d="M1548 5293 c-8 -10 -18 -27 -22 -38 -7 -19 -9 -19 -30 8 -24 29 -47
35 -64 14 -13 -15 -4 -31 23 -41 19 -8 19 -8 -2 -19 -13 -5 -23 -14 -23 -19 0
-14 57 -9 70 7 17 20 30 19 30 -3 0 -23 29 -64 41 -57 5 4 9 17 9 31 0 16 8
27 23 33 13 5 28 16 35 24 11 13 16 12 37 -9 13 -13 36 -24 50 -24 34 0 82 25
95 50 13 24 35 26 44 5 7 -19 26 -20 26 0 0 19 -39 55 -59 55 -21 -1 -52 -25
-55 -42 -5 -39 -39 -53 -34 -14 6 50 -48 75 -76 34 l-16 -22 -23 22 c-28 27
-59 28 -79 5z m52 -32 c0 -12 -20 -25 -27 -18 -7 7 6 27 18 27 5 0 9 -4 9 -9z"/>
<path d="M1217 5276 c-9 -14 -15 -40 -14 -62 3 -37 4 -39 41 -42 72 -6 104 64
50 107 -35 27 -58 26 -77 -3z m67 -49 c-3 -9 -12 -17 -20 -17 -15 0 -18 18 -8
45 6 14 9 15 21 3 7 -8 11 -22 7 -31z"/>
<path d="M1349 5266 c-10 -21 -9 -30 5 -51 22 -33 29 -27 30 26 1 49 -18 63
-35 25z"/>
<path d="M3586 4690 c-70 -75 -58 -119 32 -106 26 4 64 7 84 6 20 0 39 4 43
10 3 5 16 10 27 10 11 0 27 8 34 18 13 16 15 15 35 -10 12 -16 37 -32 61 -38
40 -11 64 -6 40 9 -9 5 -10 15 -3 32 18 50 -24 79 -53 37 -15 -21 -16 -21 -36
-3 -16 15 -26 17 -48 9 -18 -6 -40 -6 -65 0 -37 10 -40 9 -65 -22 -19 -22 -39
-34 -64 -39 -36 -5 -38 -4 -38 20 0 19 13 37 45 63 39 33 49 54 26 54 -5 0
-29 -22 -55 -50z m147 -47 c9 -9 -12 -33 -29 -33 -17 0 -18 27 -1 33 18 8 23
8 30 0z"/>
<path d="M3596 4525 c-3 -8 -13 -15 -21 -15 -14 0 -15 -8 -10 -47 8 -55 29
-77 65 -68 54 13 77 77 44 123 -18 26 -69 30 -78 7z m62 -39 c4 -19 -23 -66
-38 -66 -13 0 -13 32 0 65 11 29 33 29 38 1z"/>
<path d="M4391 4514 c-35 -29 -36 -33 -17 -60 14 -18 15 -18 26 14 8 22 20 34
38 38 39 10 46 15 31 25 -24 15 -46 10 -78 -17z"/>
<path d="M4192 4508 c-18 -18 -14 -46 8 -53 28 -9 25 -22 -6 -29 -19 -5 -24
-10 -17 -17 7 -7 23 -7 49 0 22 6 52 11 68 11 21 0 27 4 22 15 -3 9 -1 24 6
34 13 22 4 51 -16 51 -8 0 -29 -12 -46 -26 -29 -25 -57 -27 -32 -2 7 7 12 16
12 20 0 12 -35 9 -48 -4z"/>
<path d="M3720 4495 c0 -10 7 -15 18 -13 22 4 22 22 0 26 -11 2 -18 -3 -18
-13z"/>
<path d="M4092 4493 c-19 -13 -28 -14 -43 -5 -24 15 -52 15 -67 0 -9 -9 -18
-9 -37 0 -30 14 -71 -1 -80 -30 -7 -20 -13 -22 -33 -10 -7 5 -10 16 -6 26 6
14 2 17 -17 14 -32 -4 -39 -44 -10 -53 29 -9 26 -23 -6 -37 l-28 -12 28 -4
c16 -2 35 2 43 9 18 15 19 13 30 -35 13 -54 34 -59 34 -8 0 35 4 43 36 62 26
15 40 18 47 11 18 -18 41 -13 56 11 l14 22 8 -22 c11 -29 23 -28 37 3 14 31
28 32 36 3 4 -17 8 -20 16 -12 15 15 -1 78 -21 81 -8 1 -25 -5 -37 -14z m-162
-37 c0 -7 -7 -19 -15 -26 -12 -10 -15 -9 -15 7 0 11 3 23 7 26 11 12 23 8 23
-7z"/>
<path d="M5610 4474 c-107 -7 -312 -18 -455 -24 -281 -11 -503 -29 -511 -41
-8 -13 15 -492 27 -549 16 -80 20 -85 70 -84 114 1 970 50 1104 63 55 6 228
15 385 22 157 6 290 12 296 14 6 2 14 47 18 111 4 59 9 127 13 150 5 42 7 43
46 46 56 4 60 26 5 30 l-43 3 -6 85 c-7 97 -15 135 -35 168 l-14 22 -353 -1
c-193 -1 -440 -8 -547 -15z m892 -32 c25 -25 32 -135 20 -317 -7 -101 -15
-191 -18 -199 -5 -12 -22 -16 -73 -16 -92 0 -530 -27 -741 -45 -271 -23 -972
-58 -980 -48 -11 13 -32 235 -37 404 -5 145 -4 157 13 163 11 5 87 12 169 16
83 5 184 12 225 15 41 3 185 11 320 17 135 6 283 14 330 18 113 11 760 4 772
-8z"/>
<path d="M5296 4317 c-28 -23 -29 -26 -23 -86 6 -72 17 -88 64 -97 47 -9 78 8
102 53 11 21 20 31 21 21 0 -25 22 -68 33 -68 6 0 7 16 3 39 -4 24 -2 42 4 46
16 10 -10 37 -27 31 -8 -4 -18 5 -24 22 -18 46 -39 62 -83 62 -28 0 -50 -8
-70 -23z m112 -19 c32 -32 1 -119 -47 -136 -39 -14 -52 2 -59 67 -4 46 -2 50
24 65 35 19 66 20 82 4z"/>
<path d="M4791 4304 c-61 -51 -81 -134 -41 -174 24 -24 51 -25 92 -4 17 9 42
14 58 11 15 -3 40 1 56 9 16 8 37 13 46 11 10 -3 22 2 27 11 9 15 11 15 30 -2
17 -15 35 -18 93 -17 78 2 93 7 65 22 -9 6 -17 20 -17 33 0 54 -59 61 -75 8
-12 -43 -43 -44 -52 -2 -8 40 -18 45 -48 22 -23 -19 -29 -19 -72 -6 -62 19
-60 19 -82 -24 -31 -60 -105 -84 -117 -37 -8 34 24 96 63 120 18 11 31 24 29
29 -5 20 -24 16 -55 -10z m164 -109 c0 -14 -48 -36 -58 -26 -16 16 5 42 32 39
14 -2 26 -7 26 -13z"/>
<path d="M6238 4283 c-14 -16 -31 -38 -37 -50 -17 -34 -39 -29 -43 10 -2 27
-8 33 -31 35 -16 2 -39 -5 -56 -17 -29 -21 -29 -21 -34 -1 -6 24 -30 26 -48 4
-12 -14 -9 -20 16 -40 25 -20 27 -24 12 -30 -26 -10 -44 2 -62 40 -22 46 -42
52 -74 22 -26 -25 -26 -25 -51 -6 -18 14 -34 18 -56 14 -18 -3 -35 -1 -38 5
-12 19 -41 12 -69 -16 -24 -26 -26 -36 -31 -143 -7 -154 -9 -170 -22 -170 -23
0 -31 27 -28 99 2 55 7 77 18 83 23 13 20 55 -4 68 -11 6 -20 20 -20 30 0 22
-12 25 -41 10 -28 -16 -23 -40 11 -53 38 -14 38 -26 0 -33 -35 -7 -39 -20 -10
-29 18 -6 20 -15 19 -88 -1 -76 1 -83 26 -104 22 -19 33 -22 68 -17 23 4 53
11 67 17 21 9 22 11 7 14 -15 4 -17 11 -12 43 6 37 -11 70 -36 70 -6 0 -9 21
-7 47 2 39 7 48 23 51 11 2 29 8 40 13 14 7 30 7 49 0 19 -8 33 -8 47 -1 11 6
24 8 29 5 5 -3 18 12 30 35 11 22 23 40 26 40 3 0 10 -13 15 -29 17 -47 83
-66 127 -35 15 10 32 14 48 10 14 -4 50 -1 80 6 43 10 56 18 61 36 7 27 56 55
83 47 25 -8 28 20 4 29 -35 13 -71 5 -96 -21z m-518 -68 c0 -21 -24 -45 -44
-45 -12 0 -5 34 11 52 22 25 33 23 33 -7z m85 5 c-3 -5 -10 -10 -16 -10 -5 0
-9 5 -9 10 0 6 7 10 16 10 8 0 12 -4 9 -10z m-119 -236 c-3 -9 -6 -18 -6 -20
0 -2 -7 -4 -15 -4 -18 0 -19 12 -3 28 17 17 31 15 24 -4z"/>
<path d="M5185 4098 c-3 -7 -11 -31 -18 -53 -17 -48 -47 -58 -72 -23 l-16 23
-27 -32 -28 -32 -29 19 c-44 29 -62 25 -109 -24 -41 -42 -93 -65 -116 -51 -19
12 -10 41 25 82 41 48 42 53 15 53 -22 0 -80 -81 -80 -112 0 -10 10 -28 21
-39 18 -18 28 -20 58 -14 20 4 54 7 75 7 24 -1 53 6 73 18 25 15 39 17 52 10
14 -7 23 -3 41 22 l23 31 14 -26 c14 -28 50 -39 39 -12 -3 9 0 15 9 15 7 0 17
-9 20 -20 4 -11 17 -28 31 -37 23 -15 26 -14 64 11 22 14 40 33 40 41 0 8 9
20 20 27 25 16 26 38 1 38 -21 0 -71 -53 -71 -75 0 -19 -26 -25 -46 -11 -20
15 -13 46 11 46 17 0 20 16 4 26 -7 4 -9 22 -4 49 6 41 -9 73 -20 43z m-225
-123 c0 -19 -46 -49 -60 -40 -8 5 -4 15 11 31 25 27 49 31 49 9z"/>
<path d="M5471 4025 c-9 -52 -9 -71 1 -93 15 -31 61 -38 66 -10 2 12 -2 15
-19 11 -21 -6 -21 -4 -18 72 5 101 -14 113 -30 20z"/>
<path d="M5804 4026 c-37 -37 -41 -53 -21 -81 18 -24 37 -11 37 24 0 35 14 47
63 56 39 8 48 19 21 29 -36 14 -67 5 -100 -28z"/>
<path d="M5355 3986 c-32 -49 3 -94 52 -66 58 33 55 82 -5 88 -24 2 -34 -3
-47 -22z m55 -15 c0 -5 -7 -12 -16 -15 -24 -9 -28 -7 -14 9 14 17 30 20 30 6z"/>
<path d="M3710 4453 c0 -24 26 -60 36 -50 10 10 -8 59 -23 65 -8 2 -13 -5 -13
-15z"/>
<path d="M7148 4243 c-10 -2 -18 -9 -18 -14 0 -14 44 -11 66 6 18 14 18 14 -6
14 -14 -1 -33 -3 -42 -6z"/>
<path d="M7295 4240 c-3 -5 0 -13 9 -16 21 -8 71 -1 71 11 0 14 -72 19 -80 5z"/>
<path d="M6800 4220 c-12 -8 -12 -10 2 -15 23 -9 50 -3 56 13 4 14 -36 16 -58
2z"/>
<path d="M6950 4220 c0 -5 18 -10 40 -10 22 0 40 5 40 10 0 6 -18 10 -40 10
-22 0 -40 -4 -40 -10z"/>
<path d="M6670 4200 c0 -5 11 -10 25 -10 14 0 25 5 25 10 0 6 -11 10 -25 10
-14 0 -25 -4 -25 -10z"/>
<path d="M4525 4048 c8 -38 35 -74 35 -47 0 26 -21 79 -32 79 -6 0 -7 -13 -3
-32z"/>
<path d="M8542 3943 c-55 -79 -66 -139 -32 -173 11 -11 30 -20 43 -20 21 1 21
1 -5 23 -16 13 -28 31 -28 40 0 23 34 90 54 106 20 17 21 51 2 51 -8 0 -23
-12 -34 -27z"/>
<path d="M8685 3960 c-3 -5 -13 -33 -21 -61 -14 -46 -14 -53 1 -75 16 -25 58
-33 71 -13 4 8 9 8 17 0 6 -6 22 -11 35 -11 18 0 23 4 18 16 -4 10 1 25 11 36
13 15 15 23 7 36 -16 25 -40 26 -64 2 -34 -34 -56 -22 -52 27 2 40 -10 64 -23
43z m45 -120 c0 -5 -8 -10 -17 -10 -15 0 -16 2 -3 10 19 12 20 12 20 0z"/>
<path d="M7784 3887 c-23 -23 -45 -52 -49 -65 -13 -43 37 -71 65 -37 8 10 21
13 33 9 17 -5 19 -3 14 17 -4 13 -7 45 -7 72 0 26 -3 47 -7 46 -5 0 -27 -19
-49 -42z m16 -50 c0 -14 -20 -37 -32 -37 -12 0 -10 24 4 38 16 16 28 15 28 -1z"/>
<path d="M9022 3918 c6 -18 28 -21 28 -4 0 9 -7 16 -16 16 -9 0 -14 -5 -12
-12z"/>
<path d="M8915 3899 c-4 -6 -13 -8 -21 -5 -30 12 -72 -62 -45 -78 5 -3 23 -1
41 5 23 9 34 9 43 0 19 -19 27 -12 27 27 0 48 -28 80 -45 51z"/>
<path d="M7935 3884 c-15 -15 -15 -18 1 -42 16 -24 16 -26 -7 -43 -13 -10 -21
-20 -18 -24 10 -10 56 5 73 24 15 16 15 20 -2 42 -11 13 -17 29 -15 36 7 19
-14 24 -32 7z"/>
<path d="M8052 3885 l-33 -14 7 -68 c4 -37 11 -78 15 -91 13 -35 32 -16 25 24
-9 45 19 62 94 59 30 -2 61 2 69 8 10 8 16 7 25 -4 21 -29 49 -38 75 -24 14 7
41 10 63 7 39 -5 55 12 22 25 -13 5 -12 9 7 29 18 19 20 26 9 39 -17 20 -23
19 -58 -10 -36 -30 -42 -31 -42 -7 0 30 -12 34 -36 11 -21 -19 -24 -20 -30 -6
-4 11 -18 16 -42 16 -46 0 -102 6 -122 14 -8 4 -30 0 -48 -8z m38 -32 c0 -5
-4 -15 -10 -23 -11 -18 -25 -7 -17 15 6 15 27 21 27 8z m225 -48 c0 -5 -8 -11
-17 -13 -11 -2 -18 3 -18 13 0 10 7 15 18 13 9 -2 17 -8 17 -13z"/>
<path d="M8602 3888 c-15 -15 -15 -43 -2 -69 18 -32 30 -21 30 25 0 48 -10 62
-28 44z"/>
<path d="M7880 3876 c0 -8 -5 -16 -12 -18 -17 -6 -1 -58 18 -58 12 0 14 7 8
35 -4 23 -2 35 5 35 6 0 11 5 11 10 0 6 -7 10 -15 10 -8 0 -15 -6 -15 -14z"/>
<path d="M9020 3835 c0 -8 7 -15 15 -15 8 0 15 7 15 15 0 8 -7 15 -15 15 -8 0
-15 -7 -15 -15z"/>
<path d="M4090 3702 c-45 -44 -51 -79 -20 -107 14 -12 27 -15 47 -10 15 3 38
7 50 7 15 0 25 9 32 29 13 37 31 37 31 1 0 -34 16 -52 46 -52 27 0 43 20 17
20 -15 1 -14 4 7 21 l25 21 5 -23 c5 -19 12 -24 36 -22 16 2 43 3 60 3 23 0
36 7 48 25 9 14 21 23 27 19 5 -3 21 1 34 10 24 16 25 15 31 -9 9 -36 24 -31
24 9 0 63 -22 85 -50 51 -8 -9 -21 -13 -32 -9 -25 8 -58 -22 -58 -53 0 -31
-18 -30 -26 2 -3 14 -9 25 -13 25 -4 0 -13 -11 -19 -25 -11 -25 -39 -37 -29
-12 19 45 19 47 3 47 -9 0 -16 -4 -16 -10 0 -5 -7 -10 -15 -10 -8 0 -15 4 -15
9 0 15 -30 22 -50 11 -14 -7 -25 -7 -39 2 -17 10 -24 9 -45 -11 -13 -13 -29
-20 -35 -17 -5 4 -12 2 -15 -3 -4 -5 -2 -12 4 -16 6 -4 8 -11 5 -16 -9 -13
-38 -11 -59 4 -17 13 -17 15 -2 46 9 17 28 37 41 43 27 12 31 23 15 33 -6 4
-29 -11 -50 -33z"/>
<path d="M3738 3698 c-32 -11 -35 -20 -13 -38 19 -16 19 -49 0 -56 -8 -4 -15
-11 -15 -16 0 -7 21 -8 63 -2 34 4 96 8 139 9 42 0 80 3 84 8 4 4 0 7 -9 7
-21 0 -22 14 -2 30 19 16 19 36 -1 44 -20 8 -50 -9 -70 -39 -9 -14 -22 -25
-30 -25 -22 0 -27 20 -9 40 10 11 12 20 6 24 -12 8 -41 -20 -41 -39 0 -18 -37
-38 -56 -31 -8 3 -14 19 -14 35 0 25 4 30 35 35 19 4 35 11 35 16 0 13 -67 11
-102 -2z"/>
<path d="M3696 3515 c-15 -12 -18 -22 -13 -58 14 -98 40 -120 91 -74 38 34 38
81 1 121 -27 29 -51 32 -79 11z m64 -30 c18 -22 15 -66 -6 -82 -31 -23 -40
-16 -36 30 6 70 16 83 42 52z"/>
<path d="M3850 3485 c7 -8 16 -12 21 -9 13 8 1 24 -18 24 -13 0 -13 -3 -3 -15z"/>
<path d="M4473 3480 c-28 -11 -57 -55 -49 -75 9 -25 33 -17 39 13 4 17 16 33
31 40 47 21 28 42 -21 22z"/>
<path d="M3830 3426 c0 -13 7 -29 15 -36 12 -10 15 -9 15 8 0 27 -10 52 -21
52 -5 0 -9 -11 -9 -24z"/>
<path d="M4494 2243 c2 -10 7 -32 11 -50 3 -17 13 -37 22 -45 14 -11 15 -7 8
42 -9 64 -11 70 -31 70 -10 0 -14 -6 -10 -17z"/>
<path d="M272 1958 c-24 -5 -45 -15 -47 -21 -2 -7 -6 -24 -9 -39 -8 -37 -26
-36 -26 2 0 32 -23 42 -34 14 -19 -49 1 -77 58 -80 l46 -3 0 44 c0 44 11 62
30 50 6 -4 4 -17 -5 -35 -22 -42 -19 -48 21 -56 45 -8 64 8 35 28 -18 13 -20
19 -11 43 6 15 19 29 30 32 24 6 26 19 4 27 -20 8 -38 6 -92 -6z"/>
<path d="M242 1624 c2 -27 8 -48 13 -46 15 3 12 85 -3 90 -10 3 -12 -8 -10
-44z"/>
<path d="M7709 1626 c-7 -7 -379 -14 -1244 -21 -313 -3 -594 -7 -623 -11 -51
-5 -55 -8 -73 -47 -20 -46 -24 -127 -9 -193 5 -23 14 -83 20 -134 17 -146 -30
-132 408 -123 207 4 526 6 707 3 575 -9 1617 4 1659 20 22 8 23 15 31 152 9
179 7 330 -6 343 -11 11 -860 21 -870 11z m786 -44 l50 -7 6 -67 c7 -79 -3
-333 -13 -343 -4 -4 -128 -9 -275 -11 -147 -1 -384 -8 -526 -15 -204 -9 -342
-9 -650 0 -296 10 -450 10 -627 2 -278 -13 -598 -13 -622 0 -10 5 -18 19 -18
30 0 11 -10 80 -21 152 -25 156 -18 209 29 229 18 8 176 13 482 15 250 2 664
7 920 12 590 10 1200 11 1265 3z"/>
<path d="M5925 1453 c-22 -9 -41 -17 -43 -19 -4 -3 18 -202 25 -220 11 -28 33
-15 33 20 0 28 6 38 40 60 48 31 50 32 50 6 0 -12 7 -34 15 -51 13 -25 21 -29
53 -29 20 1 61 -1 90 -5 37 -4 59 -2 69 7 9 7 28 11 43 10 16 -2 31 1 34 7 5
7 15 7 31 -1 35 -16 41 -4 15 32 -17 24 -28 31 -47 27 -18 -3 -22 -1 -19 12
11 38 16 127 7 140 -15 22 -31 3 -31 -38 0 -38 -17 -141 -24 -148 -2 -3 -13 1
-25 8 -15 10 -19 20 -14 37 4 19 2 23 -12 20 -10 -1 -23 -11 -29 -20 -8 -13
-5 -22 12 -41 20 -21 21 -25 7 -31 -32 -12 -42 -6 -58 34 -18 46 -33 51 -47
15 -13 -34 -30 -32 -30 4 0 16 -7 34 -15 41 -11 9 -12 17 -5 30 39 73 -37 130
-125 93z m91 -38 c10 -26 -50 -105 -80 -105 -3 0 -8 20 -12 46 -5 37 -3 47 12
59 25 19 73 19 80 0z"/>
<path d="M6827 1454 c-4 -4 -7 -25 -7 -46 0 -46 -15 -78 -35 -78 -21 0 -18
-17 5 -30 11 -6 20 -19 20 -30 0 -26 39 -53 57 -38 11 9 10 13 -7 25 -24 17
-25 31 -3 55 12 13 14 21 6 26 -6 4 -10 30 -10 61 2 50 -9 72 -26 55z"/>
<path d="M7832 1447 c-6 -7 -16 -35 -22 -62 -6 -27 -15 -54 -21 -61 -6 -8 -2
-26 13 -55 19 -36 29 -45 56 -47 38 -4 43 14 7 28 -30 11 -31 18 -7 36 16 13
16 15 0 27 -15 12 -16 19 -3 72 7 33 11 63 9 67 -7 12 -20 10 -32 -5z"/>
<path d="M8291 1442 c-6 -11 -11 -35 -11 -52 0 -40 -21 -90 -49 -114 -33 -30
-46 -10 -32 54 16 76 14 100 -8 100 -15 0 -20 -13 -31 -76 -12 -71 -12 -77 7
-102 26 -35 59 -39 87 -12 20 18 24 19 36 5 28 -34 35 -16 35 89 0 110 -12
148 -34 108z"/>
<path d="M6504 1436 c-29 -13 -31 -18 -38 -79 -4 -42 -2 -74 5 -90 24 -53 110
-59 148 -12 18 24 19 24 35 6 12 -14 30 -18 66 -18 28 0 50 2 50 4 0 2 -4 11
-9 21 -5 9 -14 29 -20 45 -14 35 -27 34 -34 -3 -8 -39 -23 -38 -31 1 -5 28 -9
30 -32 25 -15 -4 -32 -2 -40 5 -12 9 -10 16 8 41 16 23 19 35 11 47 -13 21
-79 25 -119 7z m76 -25 c0 -5 -11 -18 -25 -29 -34 -27 -32 -51 5 -58 38 -8 40
-37 5 -60 -33 -22 -53 -12 -61 30 -9 53 3 101 29 114 28 14 47 15 47 3z"/>
<path d="M6947 1443 c-2 -5 -7 -26 -11 -48 -11 -65 -15 -73 -41 -79 -39 -10
-31 -30 10 -28 6 1 19 -13 30 -31 21 -34 65 -50 65 -24 0 8 -9 17 -20 20 -25
6 -27 42 -2 52 16 6 16 7 -1 20 -16 12 -17 18 -7 55 6 23 9 48 6 56 -6 15 -22
19 -29 7z"/>
<path d="M7418 1423 c-58 -63 -78 -162 -40 -196 22 -20 73 -22 90 -5 21 21 13
29 -25 26 -36 -3 -38 -1 -41 29 -4 36 18 85 55 125 25 26 24 48 -1 48 -7 0
-24 -12 -38 -27z"/>
<path d="M7214 1339 c-30 -34 -56 -39 -83 -18 -33 27 -86 25 -105 -3 -51 -72
33 -133 101 -74 22 19 31 21 46 12 15 -9 22 -6 42 19 26 32 26 32 43 -7 18
-43 36 -35 29 13 -5 37 -30 79 -47 79 -4 0 -15 -10 -26 -21z m-104 -58 c-12
-24 -48 -37 -63 -22 -16 16 11 41 45 41 25 0 27 -2 18 -19z"/>
<path d="M8392 1344 c-27 -19 -16 -48 23 -58 35 -9 31 -24 -10 -42 -44 -18
-45 -34 -1 -34 36 0 86 32 86 56 0 8 -11 23 -24 35 -15 13 -22 28 -19 40 7 24
-23 26 -55 3z"/>
<path d="M7538 1339 c-52 -30 -37 -99 21 -99 38 0 81 35 81 65 0 39 -60 59
-102 34z m62 -27 c0 -12 -23 -32 -37 -32 -17 0 -17 27 0 33 19 8 37 8 37 -1z"/>
<path d="M7678 1317 c-18 -15 -28 -32 -28 -49 0 -35 17 -44 40 -23 17 15 20
15 42 1 14 -9 27 -13 31 -10 8 8 -21 87 -36 96 -17 11 -18 10 -49 -15z"/>
<path d="M8027 1322 c-35 -38 -13 -92 37 -92 24 0 56 37 56 65 0 43 -63 61
-93 27z m40 -39 c-15 -16 -17 -16 -17 -1 0 9 6 18 13 21 20 7 22 -2 4 -20z"/>
<path d="M7927 1312 c-21 -23 -22 -68 -3 -75 9 -4 22 7 35 29 11 19 25 34 31
34 5 0 10 7 10 15 0 22 -53 19 -73 -3z"/>
<path d="M5247 1414 c-10 -11 13 -34 34 -34 11 0 19 7 19 15 0 8 -4 15 -9 15
-5 0 -16 2 -23 5 -8 3 -17 3 -21 -1z"/>
<path d="M5357 1404 c-16 -16 -5 -25 26 -22 17 2 32 8 32 13 0 12 -48 19 -58
9z"/>
<path d="M5480 1386 c0 -18 38 -28 62 -15 30 16 20 29 -22 29 -27 0 -40 -4
-40 -14z"/>
<path d="M5650 1376 c0 -12 10 -16 36 -16 45 0 42 24 -4 28 -24 2 -32 -1 -32
-12z"/>
<path d="M6578 875 c-3 -3 -56 -5 -119 -5 -239 -1 -705 -21 -732 -32 -27 -11
-28 -14 -24 -62 18 -199 31 -300 47 -356 11 -36 20 -74 22 -85 3 -19 13 -20
193 -26 127 -5 244 -2 352 7 113 9 246 11 435 7 256 -5 619 8 948 36 52 4 298
3 546 -2 409 -8 455 -7 483 8 27 13 31 21 29 48 -1 18 1 66 6 107 8 79 -6 276
-21 291 -25 25 -547 56 -1075 64 -270 4 -358 2 -438 -10 -126 -19 -248 -19
-374 0 -95 14 -267 20 -278 10z m332 -55 c68 -14 265 -12 355 4 66 11 149 12
460 5 510 -12 966 -37 983 -53 2 -3 8 -40 14 -83 9 -72 -4 -268 -19 -283 -2
-3 -215 -4 -471 -2 -343 2 -521 -1 -672 -12 -354 -26 -445 -30 -815 -32 -198
-1 -479 -5 -625 -9 -291 -7 -320 -4 -320 40 0 15 -5 35 -11 46 -5 11 -16 79
-24 152 -8 73 -17 151 -21 173 l-6 42 118 7 c183 12 744 24 884 19 69 -3 145
-9 170 -14z"/>
<path d="M6029 746 c-31 -13 -86 -33 -123 -46 -51 -17 -66 -26 -64 -38 3 -12
13 -16 36 -14 l32 2 0 -73 c0 -68 10 -97 32 -97 4 0 8 22 8 49 0 26 3 69 6 94
6 45 7 45 73 73 82 34 89 40 71 58 -13 13 -22 12 -71 -8z"/>
<path d="M8037 732 c-2 -4 -14 -39 -26 -78 -11 -40 -27 -74 -35 -77 -11 -4 -9
-15 10 -56 28 -58 51 -69 107 -50 31 10 44 22 60 55 11 23 30 45 41 48 21 6
21 7 -3 27 -13 11 -29 18 -35 16 -6 -2 -23 -25 -38 -52 -25 -46 -59 -72 -79
-59 -18 11 -9 41 16 52 30 14 32 28 6 35 -19 5 -19 7 -5 52 8 27 14 56 14 66
0 17 -26 34 -33 21z"/>
<path d="M8375 684 c-10 -73 0 -159 20 -190 17 -26 44 -28 36 -3 -3 8 -7 66
-10 129 -5 97 -9 115 -23 118 -13 3 -18 -8 -23 -54z"/>
<path d="M6435 620 c-3 -60 -4 -114 0 -120 11 -17 42 -11 58 13 14 21 15 21
34 5 19 -18 48 -25 41 -10 -2 4 -14 24 -27 45 -21 34 -32 42 -55 38 -5 -1 -6
23 -2 55 7 57 -3 84 -29 84 -9 0 -15 -32 -20 -110z"/>
<path d="M7568 692 c-105 -113 -104 -213 2 -212 19 1 46 7 59 14 14 8 41 11
67 8 32 -3 52 1 78 16 35 21 36 21 46 2 15 -28 38 -25 46 5 3 13 12 29 19 35
11 9 16 3 25 -30 10 -37 33 -61 46 -48 2 3 -1 28 -7 57 -15 73 -61 102 -96 61
-20 -24 -41 -25 -67 -5 -11 8 -41 15 -67 15 -38 0 -51 -5 -63 -22 -9 -12 -16
-30 -16 -39 0 -29 -96 -42 -106 -14 -7 17 34 91 65 119 12 11 21 27 21 36 0
29 -26 30 -52 2z m192 -121 c0 -17 -29 -32 -57 -29 l-28 4 35 17 c40 19 50 20
50 8z"/>
<path d="M6671 676 c-45 -46 -40 -75 15 -96 23 -8 43 -19 45 -25 3 -8 -35 -25
-100 -42 -11 -3 -11 -6 0 -19 17 -21 90 -12 130 16 l29 21 22 -20 c26 -25 47
-26 74 -7 18 14 18 15 -11 22 -48 11 -50 16 -20 40 15 12 24 27 21 33 -12 19
-41 12 -66 -14 l-24 -25 -21 20 c-11 11 -35 23 -53 26 -18 4 -32 10 -32 15 0
4 16 21 36 37 36 30 38 52 5 52 -9 0 -32 -15 -50 -34z"/>
<path d="M8490 612 c-19 -15 -21 -22 -12 -39 6 -11 23 -24 37 -27 26 -7 35
-26 11 -26 -8 0 -24 -8 -37 -19 l-23 -18 22 -7 c25 -8 80 1 100 16 19 16 14
45 -12 65 -14 11 -23 28 -22 43 1 32 -32 38 -64 12z"/>
<path d="M6950 600 c-6 -11 -17 -20 -25 -20 -20 0 -19 -6 6 -46 24 -40 49 -45
49 -10 0 33 10 56 24 56 6 0 18 5 26 10 13 9 13 11 0 20 -26 17 -68 12 -80
-10z"/>
<path d="M7081 594 c-28 -36 -28 -88 1 -108 28 -20 59 -20 84 -1 19 14 19 15
-2 21 -21 6 -21 6 3 30 19 19 22 28 13 44 -24 45 -70 51 -99 14z m59 -23 c0
-5 -7 -12 -16 -15 -14 -5 -15 -4 -4 9 14 17 20 19 20 6z"/>
<path d="M6027 592 c-32 -35 -15 -112 24 -112 52 0 105 56 84 90 -6 10 -69 40
-85 40 -4 0 -14 -8 -23 -18z m63 -41 c0 -12 -29 -35 -36 -28 -11 10 5 37 21
37 8 0 15 -4 15 -9z"/>
<path d="M6333 598 c-30 -38 -35 -59 -18 -84 17 -26 52 -32 86 -13 26 13 14
31 -16 23 -37 -9 -49 4 -30 33 24 36 4 74 -22 41z"/>
<path d="M7220 588 c-42 -45 -11 -102 52 -96 21 2 33 8 33 18 0 8 6 25 13 38
29 51 -55 86 -98 40z m46 -34 c-11 -7 -22 -11 -25 -8 -3 3 3 12 13 20 11 7 22
11 25 8 3 -3 -3 -12 -13 -20z"/>
<path d="M7381 597 c-6 -8 -17 -30 -26 -49 -13 -32 -13 -37 0 -48 13 -10 17
-7 30 23 20 49 29 51 48 12 28 -60 49 -41 26 24 -16 45 -55 64 -78 38z"/>
<path d="M8230 583 c-27 -34 -26 -78 2 -97 31 -22 41 -20 77 10 48 40 36 77
-31 103 -24 9 -30 7 -48 -16z m60 -43 c-12 -23 -40 -27 -40 -6 0 14 14 24 38
25 10 1 10 -4 2 -19z"/>
<path d="M6153 555 c8 -51 34 -78 67 -70 14 3 37 6 53 5 30 0 31 2 18 28 -5 9
-14 30 -20 45 -13 33 -33 31 -41 -4 -8 -31 -27 -31 -43 0 -7 14 -18 27 -26 29
-11 4 -13 -3 -8 -33z"/>
<path d="M5197 603 c-16 -3 -26 -10 -24 -16 4 -15 57 -20 76 -8 15 10 6 32
-12 30 -7 -1 -25 -4 -40 -6z"/>
<path d="M5327 593 c-11 -10 14 -33 37 -33 28 0 50 15 42 29 -8 12 -68 15 -79
4z"/>
<path d="M5471 591 c-21 -14 -3 -31 32 -31 34 0 66 15 55 25 -11 11 -73 16
-87 6z"/>
<path d="M5610 575 c0 -16 52 -21 84 -9 32 12 15 24 -34 24 -38 0 -50 -4 -50
-15z"/>
<path d="M188 23 c23 -2 61 -2 85 0 23 2 4 4 -43 4 -47 0 -66 -2 -42 -4z"/>
<path d="M628 13 c45 -2 119 -2 165 0 45 1 8 3 -83 3 -91 0 -128 -2 -82 -3z"/>
<path d="M1178 3 c12 -2 32 -2 45 0 12 2 2 4 -23 4 -25 0 -35 -2 -22 -4z"/>
</g>
</svg>
