<?xml version="1.0" standalone="no"?>
<!DOCTYPE svg PUBLIC "-//W3C//DTD SVG 20010904//EN"
 "http://www.w3.org/TR/2001/REC-SVG-20010904/DTD/svg10.dtd">
<svg version="1.0" xmlns="http://www.w3.org/2000/svg"
 width="700.000000pt" height="667.000000pt" viewBox="0 0 700.000000 667.000000"
 preserveAspectRatio="xMidYMid meet">
<metadata>
Created by potrace 1.14, written by Peter Selinger 2001-2017
</metadata>
<g transform="translate(0.000000,667.000000) scale(0.100000,-0.100000)"
fill="#000000" stroke="none">
<path d="M6383 6295 c-15 -26 -192 -38 -668 -45 -473 -7 -502 -9 -960 -61 -99
-11 -256 -29 -350 -40 -93 -10 -215 -24 -270 -30 -127 -13 -131 -14 -114 -35
27 -33 58 -35 228 -19 91 9 240 25 331 35 158 19 569 63 695 75 99 10 1119 23
1129 14 13 -11 25 -86 26 -159 0 -80 -36 -308 -54 -334 -12 -18 -27 -20 -186
-22 -95 -2 -253 -8 -349 -14 -97 -6 -363 -15 -591 -20 -429 -9 -654 -27 -963
-74 -53 -9 -133 -19 -177 -22 l-80 -7 0 240 c0 259 -2 268 -52 261 -23 -3 -23
-4 -28 -195 -3 -105 -8 -194 -11 -197 -3 -3 -19 -1 -35 6 -28 10 -41 6 -135
-39 -94 -45 -424 -228 -524 -291 -22 -14 -49 -30 -60 -36 -32 -17 -272 -181
-355 -242 -41 -31 -97 -71 -125 -90 -27 -18 -67 -47 -89 -64 -21 -16 -43 -27
-49 -23 -9 6 -5 238 9 451 7 100 -2 136 -38 147 -16 6 -285 -21 -463 -45 -38
-5 -95 -12 -125 -15 -30 -3 -152 -16 -270 -29 -345 -40 -426 -46 -583 -48
l-148 -1 -13 -31 c-21 -52 -28 -207 -11 -273 8 -32 19 -148 25 -258 6 -110 13
-245 16 -300 3 -55 0 -136 -6 -180 -6 -44 -14 -127 -17 -185 l-5 -105 44 -20
c41 -18 52 -19 134 -9 49 6 154 17 234 24 85 8 150 18 157 26 14 13 166 30
183 19 7 -4 9 -27 5 -64 -5 -51 -4 -59 19 -80 38 -36 56 -22 56 43 0 30 4 57
9 60 4 3 6 16 4 29 -3 16 1 26 11 30 16 6 150 22 396 48 58 6 127 15 153 20
26 5 79 9 118 9 58 0 71 3 75 18 3 9 10 26 14 37 5 11 13 41 19 66 6 26 23 81
38 122 l28 76 110 -80 c61 -44 142 -99 180 -122 89 -52 275 -183 295 -207 8
-11 29 -22 45 -26 17 -4 39 -15 50 -24 11 -10 40 -28 65 -40 107 -53 260 -170
455 -346 39 -34 87 -76 109 -91 21 -15 61 -48 88 -73 l49 -44 -5 -71 c-3 -38
-10 -266 -15 -505 -7 -377 -12 -463 -35 -650 -15 -118 -31 -285 -37 -370 -6
-85 -12 -178 -15 -206 -5 -47 -4 -52 22 -69 15 -10 44 -22 63 -27 20 -6 212
-14 426 -20 493 -12 456 -9 835 -58 233 -30 323 -39 530 -55 236 -18 513 -42
635 -54 111 -12 232 -17 238 -11 11 11 26 184 17 195 -18 22 -29 107 -50 400
-21 278 -21 335 -14 785 13 714 11 863 -10 1010 -10 69 -23 133 -28 143 -5 10
-26 26 -46 35 -33 15 -99 17 -602 19 -474 2 -613 -1 -865 -17 -165 -11 -336
-25 -380 -30 -44 -5 -246 -30 -450 -55 -203 -25 -389 -48 -412 -51 -24 -3 -43
-9 -43 -15 0 -19 -18 -7 -121 79 -95 79 -240 184 -307 222 -15 8 -63 35 -107
59 -44 25 -128 77 -186 115 -59 39 -160 105 -225 146 -66 41 -143 94 -172 117
-29 24 -65 49 -81 57 -43 23 -62 75 -68 185 l-4 96 52 35 c28 19 65 47 83 61
17 14 68 49 112 77 45 28 118 78 162 111 45 34 85 61 89 61 4 0 34 18 65 39
31 22 76 50 100 62 24 12 57 32 73 44 17 12 64 40 105 62 41 22 131 71 200
108 143 78 322 167 326 162 2 -2 8 -147 14 -323 8 -278 34 -574 54 -642 3 -9
17 -95 31 -190 14 -95 31 -181 37 -192 30 -47 122 -58 323 -37 284 30 555 52
765 62 69 3 168 10 220 15 52 5 223 17 380 25 157 8 353 22 435 30 83 8 193
15 246 15 68 0 98 4 102 13 2 6 1 82 -4 167 -4 85 -12 295 -18 465 -11 328
-17 444 -26 485 -14 64 -13 221 1 324 24 171 4 371 -43 435 -24 31 -60 45 -70
26z m4 -693 c16 -10 30 -167 43 -472 6 -135 14 -342 19 -460 5 -118 8 -216 6
-218 -8 -8 -604 -52 -1335 -97 -279 -17 -597 -42 -715 -55 -124 -14 -251 -12
-264 3 -12 15 -28 109 -41 247 -5 52 -16 131 -25 175 -24 118 -45 386 -45 577
l0 166 63 7 c74 8 247 31 337 44 36 6 90 12 120 15 30 3 89 9 130 15 103 13
245 20 670 32 590 16 745 21 749 25 8 7 276 4 288 -4z m-3900 -206 c5 -8 5
-59 1 -113 -3 -54 -10 -152 -13 -218 -8 -151 -8 -150 -39 -130 -23 15 -33 15
-140 -5 -105 -20 -119 -21 -158 -7 -36 12 -71 13 -198 5 -85 -5 -186 -6 -225
-3 -38 3 -90 1 -115 -4 -77 -16 -372 -81 -440 -96 -84 -19 -105 -19 -121 1
-20 24 -51 212 -56 342 l-4 112 58 0 c206 2 361 13 658 46 72 8 184 19 250 24
66 6 163 17 215 25 52 9 140 20 195 24 55 5 105 9 112 10 7 0 16 -6 20 -13z
m-10 -641 c7 -71 22 -161 33 -200 11 -38 20 -83 20 -100 -1 -39 -54 -243 -67
-256 -10 -10 -119 -25 -353 -49 -133 -13 -251 -27 -664 -75 -164 -19 -326 -35
-358 -35 l-60 0 7 86 c4 47 8 95 10 107 15 99 16 129 6 157 -6 18 -14 105 -17
195 l-7 162 69 7 c38 4 98 14 134 22 318 71 455 87 790 90 168 2 325 7 350 12
96 21 93 24 107 -123z m4079 -957 c9 -9 24 -55 33 -105 14 -77 16 -174 13
-754 -2 -592 2 -799 24 -1099 9 -128 25 -286 35 -350 8 -47 8 -73 0 -94 l-12
-29 -77 6 c-42 3 -117 11 -167 16 -88 10 -220 21 -500 41 -216 15 -434 38
-745 76 -266 33 -310 36 -677 42 -335 6 -395 9 -408 23 -13 13 -14 37 -5 200
5 101 14 220 20 264 28 222 42 393 49 617 4 137 11 251 15 255 4 5 14 -1 22
-12 14 -19 26 -20 177 -20 89 0 286 7 437 15 295 16 412 17 1125 8 253 -3 496
-3 540 1 71 5 80 8 83 27 2 11 -6 28 -16 37 -18 16 -42 17 -339 7 -214 -7
-382 -7 -509 0 -242 13 -688 12 -824 -1 -139 -13 -689 -19 -696 -8 -8 14 -5
257 4 304 5 30 14 43 35 53 32 15 34 37 7 72 -16 21 -20 41 -20 122 0 91 -2
99 -24 113 -37 25 -56 10 -56 -44 0 -81 -8 -82 -102 -14 -46 33 -84 67 -86 76
-2 12 16 17 85 26 48 6 149 20 223 31 74 11 230 31 345 45 116 14 239 29 275
34 36 5 90 10 120 11 30 1 109 5 175 9 66 4 201 9 300 10 98 1 180 3 181 4 1
1 210 2 463 2 415 0 462 -2 477 -17z"/>
<path d="M2297 5253 c-18 -3 -36 -17 -53 -43 l-26 -39 -37 40 c-21 21 -47 39
-59 39 -39 0 -72 -42 -100 -124 -31 -92 -45 -104 -99 -90 -33 8 -38 13 -41 42
-3 30 4 40 64 98 36 36 64 67 62 70 -21 21 -139 -79 -162 -138 -17 -40 -16
-43 2 -67 18 -24 25 -26 98 -24 69 2 80 5 95 25 17 21 20 22 51 9 74 -29 161
-43 205 -30 23 6 44 18 48 27 8 22 4 23 -45 6 -39 -13 -45 -13 -59 0 -20 21
-6 33 49 40 43 6 91 38 77 53 -4 3 -24 -1 -44 -11 -31 -15 -38 -15 -50 -3 -12
12 -10 19 13 47 16 18 43 39 61 47 57 23 30 38 -50 26z m-151 -57 c6 -16 -12
-56 -30 -68 -6 -4 -19 -8 -28 -8 -23 0 -24 52 -2 74 19 20 53 21 60 2z m34
-111 c0 -16 -6 -25 -15 -25 -21 0 -31 30 -14 41 23 14 29 11 29 -16z"/>
<path d="M1623 5201 c-55 -26 -97 -89 -97 -151 -1 -43 1 -45 29 -48 l30 -4
-22 24 c-13 13 -23 27 -23 30 0 3 21 8 48 12 47 7 87 27 75 39 -3 4 -23 4 -45
1 -53 -9 -50 11 12 61 70 57 68 69 -7 36z"/>
<path d="M1215 5168 c-49 -8 -66 -14 -133 -47 -34 -17 -37 -34 -6 -40 42 -7
46 -21 19 -69 -14 -24 -25 -53 -25 -63 0 -23 22 -24 133 -7 64 9 77 15 77 30
0 15 -9 18 -60 18 -66 0 -71 6 -45 56 8 16 15 37 15 47 0 16 18 27 90 54 24 9
24 10 5 20 -12 6 -39 6 -70 1z"/>
<path d="M1357 5102 c-31 -32 -57 -65 -57 -75 0 -25 51 -48 86 -37 16 4 21 9
12 9 -18 1 -58 35 -58 49 0 11 60 73 90 94 23 16 23 17 5 17 -12 1 -44 -23
-78 -57z"/>
<path d="M6025 3515 c-26 -18 -251 -73 -290 -71 -25 1 -33 -5 -47 -32 l-16
-33 -13 38 c-17 52 -40 86 -51 75 -5 -5 -13 -37 -18 -70 -9 -68 -44 -126 -117
-199 -73 -73 -111 -51 -123 72 -5 50 -13 82 -25 95 -23 26 -33 25 -60 -4 -12
-13 -27 -25 -33 -27 -7 -2 -14 -39 -18 -89 -6 -79 -5 -86 16 -105 l22 -20 23
29 22 28 22 -30 c60 -85 147 -93 218 -19 23 23 50 58 60 77 26 47 49 50 58 8
4 -18 18 -52 31 -75 43 -74 152 -94 226 -41 26 18 29 25 24 57 -9 54 -9 53 5
88 10 26 10 34 0 47 -12 14 -16 14 -41 -4 -31 -22 -123 -45 -145 -36 -21 8
-18 31 8 61 16 19 49 34 120 55 54 15 106 35 116 44 10 9 22 16 27 16 14 0 38
60 28 70 -5 4 -18 2 -29 -5z"/>
<path d="M4855 3442 c-94 -62 -135 -121 -135 -195 0 -86 47 -146 115 -147 90
0 148 34 227 133 30 38 38 58 38 89 0 85 -56 148 -139 155 -40 4 -54 -1 -106
-35z m146 -42 c46 -25 2 -117 -90 -187 -62 -48 -131 -43 -131 9 0 27 24 69 60
103 17 17 41 40 53 51 32 31 76 41 108 24z"/>
<path d="M4464 3417 c-33 -23 -87 -65 -120 -94 -56 -50 -59 -54 -58 -97 2 -85
50 -128 145 -127 73 0 174 34 190 63 15 28 -7 31 -92 13 -119 -24 -179 -17
-179 24 0 19 111 131 129 131 6 0 23 14 38 30 14 17 36 30 49 30 24 0 38 23
29 51 -11 33 -63 23 -131 -24z"/>
<path d="M6125 6130 c-40 -20 -124 -123 -135 -165 -9 -31 -46 -30 -92 4 -47
35 -76 39 -85 14 -9 -28 -53 -83 -65 -83 -7 0 -8 15 -4 43 5 33 3 47 -8 56
-36 30 -76 -12 -76 -82 0 -53 37 -87 95 -87 37 0 47 5 79 41 l37 40 57 -7 c31
-4 68 -15 81 -25 39 -31 58 -25 66 21 4 22 9 40 12 40 2 0 23 -11 47 -25 55
-32 183 -52 204 -31 20 20 6 36 -31 36 -44 1 -107 16 -121 30 -11 11 15 39 78
83 39 27 35 70 -8 96 -42 26 -80 27 -131 1z m73 -62 c-6 -16 -55 -45 -63 -37
-9 10 6 38 23 42 32 9 44 7 40 -5z"/>
<path d="M5510 6055 c-7 -9 -41 -34 -75 -57 -95 -62 -119 -126 -64 -172 62
-52 148 -26 223 67 58 73 60 103 11 146 -39 34 -75 40 -95 16z m57 -39 c3 -3
0 -18 -6 -33 -27 -63 -121 -137 -144 -114 -7 7 4 24 37 57 28 29 45 53 41 62
-8 22 12 40 41 36 14 -1 28 -5 31 -8z"/>
<path d="M4853 6023 c-53 -52 -105 -139 -110 -185 -2 -24 0 -49 5 -57 14 -19
44 -6 63 28 9 16 29 31 44 35 24 6 32 2 52 -23 14 -17 34 -31 45 -31 18 0 20
4 13 33 -3 17 -10 70 -14 116 -5 65 -11 86 -26 97 -27 20 -39 18 -72 -13z"/>
<path d="M4325 6025 c-27 -7 -71 -16 -97 -20 -79 -11 -82 -16 -68 -126 20
-152 26 -169 60 -169 27 0 29 3 32 42 3 40 6 44 45 58 47 17 85 48 77 62 -3 5
-11 5 -18 -1 -6 -5 -35 -13 -63 -17 -57 -7 -52 -13 -68 68 -4 23 0 25 92 44
43 9 89 23 102 31 23 15 24 16 6 29 -23 17 -35 17 -100 -1z"/>
<path d="M5191 5969 c-35 -38 -66 -67 -70 -64 -3 4 -6 26 -6 48 0 35 -4 43
-21 45 -29 4 -44 -18 -50 -74 -8 -65 20 -104 74 -104 32 0 44 8 92 60 63 68
95 122 87 144 -12 31 -43 14 -106 -55z"/>
<path d="M4505 5972 c-6 -4 -25 -37 -43 -73 -34 -70 -40 -122 -18 -152 30 -39
135 -30 189 17 38 33 20 40 -59 21 -93 -21 -104 -2 -48 87 35 55 40 84 16 97
-24 13 -24 13 -37 3z"/>
<path d="M1666 3773 c-12 -45 -16 -151 -7 -176 12 -31 36 -35 49 -9 17 31 25
171 12 187 -17 20 -48 19 -54 -2z"/>
<path d="M1601 3396 c-6 -8 -14 -59 -18 -114 -5 -93 -5 -100 15 -111 27 -15
38 0 51 73 16 87 14 130 -7 149 -23 21 -26 21 -41 3z"/>
<path d="M1512 3023 c-16 -30 -24 -160 -13 -182 8 -13 8 -22 1 -26 -17 -10
-49 5 -55 26 -11 32 -65 89 -86 89 -23 0 -25 -27 -4 -76 8 -20 13 -39 10 -44
-2 -4 -57 -10 -122 -14 -116 -6 -383 -27 -599 -46 -60 -6 -128 -10 -151 -10
-34 0 -45 -5 -65 -32 -22 -29 -26 -47 -32 -158 -4 -69 -12 -161 -17 -205 -30
-256 -63 -627 -74 -815 -3 -58 -16 -163 -30 -235 -49 -273 -81 -548 -97 -848
-15 -280 -22 -265 128 -274 110 -6 821 12 1064 27 372 23 587 34 760 36 162 2
197 -1 281 -20 l96 -23 45 21 c45 21 46 22 52 80 3 32 6 190 6 350 1 160 5
363 10 451 5 88 16 291 25 450 8 160 18 301 21 315 3 14 2 245 -2 514 l-7 490
-24 24 c-22 22 -30 24 -101 19 -208 -14 -378 -28 -482 -42 -63 -7 -148 -17
-188 -21 l-73 -7 21 36 c12 19 28 41 36 47 19 16 18 33 -4 60 l-18 23 -103
-58 c-56 -32 -104 -62 -107 -67 -3 -4 -16 -8 -29 -8 -23 0 -24 1 -18 70 4 49
2 74 -7 85 -17 20 -37 19 -48 -2z m1069 -443 c10 -400 10 -725 -1 -885 -5 -82
-17 -276 -25 -430 -9 -154 -17 -302 -20 -330 -2 -27 -4 -186 -5 -352 l0 -303
-27 0 c-16 0 -53 7 -83 16 -76 21 -279 24 -595 8 -506 -26 -774 -34 -1157 -37
-335 -2 -389 0 -402 13 -16 16 -15 48 14 440 17 211 67 558 105 719 7 30 13
104 14 164 1 61 4 114 7 118 2 4 19 3 37 -2 17 -5 72 -9 122 -8 90 0 128 3
410 33 83 8 173 18 200 20 176 17 281 27 360 36 135 15 373 29 641 36 131 4
247 11 257 16 21 11 23 51 3 67 -19 16 -551 -2 -876 -30 -373 -32 -557 -48
-675 -59 -260 -25 -300 -28 -370 -25 -41 2 -79 6 -86 10 -13 9 -10 54 32 465
16 157 29 304 29 327 0 51 -4 50 165 58 72 4 189 13 260 21 72 8 210 19 308
25 l177 11 31 -26 c17 -14 35 -26 41 -26 6 0 33 14 61 31 53 33 50 32 432 75
289 32 322 35 390 29 47 -3 87 0 120 9 28 8 61 14 75 13 l25 -2 6 -245z"/>
<path d="M1321 2588 c-56 -71 -149 -215 -199 -311 -45 -85 -55 -143 -26 -154
26 -10 47 9 77 72 l28 58 24 -23 c20 -19 30 -22 62 -15 21 4 50 9 66 12 19 4
27 1 27 -9 0 -8 14 -43 31 -76 25 -51 35 -62 55 -62 36 0 39 23 15 96 -28 85
-27 99 9 131 39 34 38 51 -2 55 l-33 3 -5 121 c-5 132 -14 154 -60 154 -22 0
-37 -12 -69 -52z m43 -155 c11 -72 7 -102 -16 -117 -31 -20 -94 -30 -102 -17
-7 10 92 171 104 171 4 0 10 -17 14 -37z"/>
<path d="M1146 2604 c-9 -8 -16 -20 -16 -26 0 -31 -178 -307 -239 -370 -50
-53 -65 -58 -81 -28 -9 16 -35 148 -55 272 -6 36 -39 73 -57 62 -13 -8 -9 -71
12 -189 26 -150 37 -184 70 -217 61 -60 137 -25 242 112 31 41 57 79 57 83 1
5 14 27 30 50 32 47 111 207 111 224 0 16 -28 43 -45 43 -7 0 -21 -7 -29 -16z"/>
<path d="M2138 2541 c-7 -69 -43 -135 -112 -206 -65 -66 -105 -82 -149 -61
-33 17 -64 81 -75 158 -12 79 -25 100 -60 96 -20 -2 -30 -14 -46 -53 -11 -27
-24 -52 -29 -54 -34 -13 -47 -43 -47 -104 0 -71 18 -107 55 -107 19 0 26 9 40
50 9 28 20 50 25 50 5 0 21 -19 37 -42 51 -78 184 -117 228 -68 10 11 23 20
29 20 6 0 29 21 51 48 93 109 115 154 115 240 0 41 -4 54 -22 66 -32 23 -35
21 -40 -33z"/>
</g>
</svg>
